<svg width="320" height="196" viewBox="0 0 320 196" fill="none" xmlns="http://www.w3.org/2000/svg">
<g clip-path="url(#clip0_459_17)">
<rect width="320" height="196" rx="10" fill="url(#paint0_linear_459_17)"/>
<rect x="38.8672" y="146" width="13.6248" height="26.6108" fill="#CFB06E"/>
<rect x="66.1172" y="146" width="13.6248" height="26.6108" fill="#CFB06E"/>
<rect x="61.8594" y="146" width="22.1402" height="6.3866" fill="#FFD987"/>
<path fill-rule="evenodd" clip-rule="evenodd" d="M24 146V172.611H31.5824V167.593L36.3189 172.611H49.1206L24 146Z" fill="#CFB06E"/>
<rect x="48.2344" y="146" width="6.3866" height="26.6108" fill="#4F4F4F"/>
<rect x="44.1895" y="155.154" width="14.4763" height="6.3866" fill="#FFD987"/>
<rect x="48.2344" y="146" width="13.6248" height="6.3866" fill="#4F4F4F"/>
<path d="M40.1165 29.5455V47H36.929L29.3352 36.0142H29.2074V47H25.517V29.5455H28.7557L36.2898 40.5227H36.4432V29.5455H40.1165ZM43.1655 47V29.5455H54.7223V32.5881H46.8558V36.7472H53.9553V39.7898H46.8558V47H43.1655ZM56.5398 32.5881V29.5455H70.875V32.5881H65.5312V47H61.8835V32.5881H56.5398ZM82.7195 47L77.7251 29.5455H81.7564L84.6456 41.6733H84.7905L87.978 29.5455H91.4297L94.6087 41.6989H94.7621L97.6513 29.5455H101.683L96.6882 47H93.0916L89.7678 35.5881H89.6314L86.3161 47H82.7195ZM108.149 47.2557C106.803 47.2557 105.643 46.983 104.672 46.4375C103.706 45.8864 102.962 45.108 102.439 44.1023C101.916 43.0909 101.655 41.8949 101.655 40.5142C101.655 39.1676 101.916 37.9858 102.439 36.9688C102.962 35.9517 103.697 35.1591 104.646 34.5909C105.601 34.0227 106.72 33.7386 108.004 33.7386C108.868 33.7386 109.672 33.8778 110.416 34.1562C111.166 34.429 111.82 34.8409 112.376 35.392C112.939 35.9432 113.376 36.6364 113.689 37.4716C114.001 38.3011 114.158 39.2727 114.158 40.3864V41.3835H103.104V39.1335H110.74C110.74 38.6108 110.626 38.1477 110.399 37.7443C110.172 37.3409 109.857 37.0256 109.453 36.7983C109.055 36.5653 108.592 36.4489 108.064 36.4489C107.513 36.4489 107.024 36.5767 106.598 36.8324C106.178 37.0824 105.848 37.4205 105.609 37.8466C105.371 38.267 105.249 38.7358 105.243 39.2528V41.392C105.243 42.0398 105.362 42.5994 105.601 43.071C105.845 43.5426 106.189 43.9062 106.632 44.1619C107.075 44.4176 107.601 44.5455 108.209 44.5455C108.612 44.5455 108.982 44.4886 109.317 44.375C109.652 44.2614 109.939 44.0909 110.178 43.8636C110.416 43.6364 110.598 43.358 110.723 43.0284L114.081 43.25C113.911 44.0568 113.561 44.7614 113.033 45.3636C112.51 45.9602 111.834 46.4261 111.004 46.7614C110.18 47.0909 109.229 47.2557 108.149 47.2557ZM116.595 47V29.5455H120.226V36.108H120.337C120.496 35.7557 120.726 35.3977 121.027 35.0341C121.334 34.6648 121.732 34.358 122.22 34.1136C122.714 33.8636 123.328 33.7386 124.061 33.7386C125.016 33.7386 125.896 33.9886 126.703 34.4886C127.51 34.983 128.155 35.7301 128.638 36.7301C129.121 37.7244 129.362 38.9716 129.362 40.4716C129.362 41.9318 129.126 43.1648 128.655 44.1705C128.189 45.1705 127.553 45.929 126.746 46.446C125.945 46.9574 125.047 47.2131 124.053 47.2131C123.348 47.2131 122.749 47.0966 122.254 46.8636C121.766 46.6307 121.365 46.3381 121.053 45.9858C120.74 45.6278 120.501 45.267 120.337 44.9034H120.175V47H116.595ZM120.149 40.4545C120.149 41.233 120.257 41.9119 120.473 42.4915C120.689 43.071 121.001 43.5227 121.411 43.8466C121.82 44.1648 122.317 44.3239 122.902 44.3239C123.493 44.3239 123.993 44.1619 124.402 43.8381C124.811 43.5085 125.121 43.054 125.331 42.4744C125.547 41.8892 125.655 41.2159 125.655 40.4545C125.655 39.6989 125.55 39.0341 125.339 38.4602C125.129 37.8864 124.82 37.4375 124.411 37.1136C124.001 36.7898 123.499 36.6278 122.902 36.6278C122.311 36.6278 121.811 36.7841 121.402 37.0966C120.999 37.4091 120.689 37.8523 120.473 38.4261C120.257 39 120.149 39.6761 120.149 40.4545ZM147.893 38.2727C147.893 40.1761 147.532 41.7955 146.81 43.1307C146.094 44.4659 145.117 45.4858 143.879 46.1903C142.646 46.8892 141.259 47.2386 139.719 47.2386C138.168 47.2386 136.776 46.8864 135.543 46.1818C134.31 45.4773 133.336 44.4574 132.62 43.1222C131.904 41.7869 131.546 40.1705 131.546 38.2727C131.546 36.3693 131.904 34.75 132.62 33.4148C133.336 32.0795 134.31 31.0625 135.543 30.3636C136.776 29.6591 138.168 29.3068 139.719 29.3068C141.259 29.3068 142.646 29.6591 143.879 30.3636C145.117 31.0625 146.094 32.0795 146.81 33.4148C147.532 34.75 147.893 36.3693 147.893 38.2727ZM144.151 38.2727C144.151 37.0398 143.967 36 143.597 35.1534C143.234 34.3068 142.719 33.6648 142.055 33.2273C141.39 32.7898 140.612 32.571 139.719 32.571C138.827 32.571 138.049 32.7898 137.384 33.2273C136.719 33.6648 136.202 34.3068 135.833 35.1534C135.469 36 135.288 37.0398 135.288 38.2727C135.288 39.5057 135.469 40.5455 135.833 41.392C136.202 42.2386 136.719 42.8807 137.384 43.3182C138.049 43.7557 138.827 43.9744 139.719 43.9744C140.612 43.9744 141.39 43.7557 142.055 43.3182C142.719 42.8807 143.234 42.2386 143.597 41.392C143.967 40.5455 144.151 39.5057 144.151 38.2727ZM154.189 39.4318V47H150.558V33.9091H154.018V36.2188H154.172C154.462 35.4574 154.947 34.8551 155.629 34.4119C156.311 33.9631 157.138 33.7386 158.109 33.7386C159.018 33.7386 159.811 33.9375 160.487 34.3352C161.163 34.733 161.689 35.3011 162.064 36.0398C162.439 36.7727 162.626 37.6477 162.626 38.6648V47H158.996V39.3125C159.001 38.5114 158.797 37.8864 158.382 37.4375C157.967 36.983 157.396 36.7557 156.669 36.7557C156.18 36.7557 155.749 36.8608 155.374 37.071C155.004 37.2812 154.714 37.5881 154.504 37.9915C154.3 38.3892 154.195 38.8693 154.189 39.4318Z" fill="#D0D0D0"/>
<path d="M290.52 255.155C290.473 254.135 290.432 253.263 290.383 252.193L284.681 252.193L284.681 249.43L278.849 249.43L278.849 252.193L276.003 252.193L276.003 249.272L267.403 249.272L267.403 240.617L270.164 240.617L270.164 234.804L264.473 234.804L264.473 231.969L270.113 231.969C270.171 230.934 270.219 230.059 270.269 229.18L276.006 229.18L276.006 231.941L278.744 231.941L278.744 226.124L270.295 226.124L270.295 223.212L273.137 223.212L273.137 217.468L278.896 217.468L278.896 211.74C279.843 211.723 280.791 211.707 281.738 211.691L281.738 206.007C282.738 205.96 283.617 205.92 284.573 205.875L284.573 203.113L278.846 203.113L278.846 197.277L276.001 197.277C275.986 200.155 275.97 203.033 275.955 205.91L273.06 205.91L273.06 208.8C272.112 208.8 271.164 208.799 270.217 208.798L270.217 202.979L273.108 202.979L273.108 197.275C274.057 197.261 275.006 197.246 275.955 197.232L275.955 194.382C275.006 194.368 274.057 194.353 273.108 194.339C273.108 192.425 273.108 190.511 273.108 188.597L275.866 188.597L275.866 185.66L273.108 185.66L273.108 176.948L278.895 176.948L278.895 168.349L287.437 168.349L287.437 165.412L278.895 165.412L278.895 159.598L276.003 159.598L276.003 156.784L278.943 156.784L278.943 153.815L281.697 153.815C281.747 152.83 281.79 151.951 281.842 150.91L284.746 150.91L284.746 145.12L287.447 145.12L287.447 139.376L284.68 139.376L284.68 130.83L278.957 130.83L278.957 136.43L281.741 136.43L281.741 139.376L275.999 139.376L275.999 136.486L273.108 136.486L273.108 130.68L267.404 130.68L267.404 124.962L270.167 124.962L270.167 127.724L275.955 127.724L275.955 122.126L278.795 122.126L278.795 124.83L281.689 124.83C281.737 123.946 281.785 123.069 281.836 122.121L284.591 122.121L284.591 124.908L287.526 124.908C287.526 124.022 287.526 123.134 287.526 122.086L293.246 122.086L293.246 119.195L290.515 119.195L290.515 116.232L287.58 116.232L287.58 113.469L281.82 113.469L281.82 119.026L275.999 119.026L275.999 116.283L278.895 116.283L278.895 107.601C279.864 107.57 280.834 107.539 281.804 107.507C281.798 106.575 281.793 105.642 281.787 104.71L284.68 104.71L284.68 101.819L287.628 101.819L287.628 104.602L290.48 104.602L290.48 95.935L293.255 95.935L293.255 93.0859L281.691 93.0859L281.691 90.3099L275.943 90.3099L275.943 95.9854L270.212 95.9854L270.212 90.2883L273.059 90.2883L273.059 87.3548L270.168 87.3548L270.168 84.4635C269.218 84.4481 268.269 84.4337 267.319 84.4183C267.319 83.4686 267.321 82.5189 267.322 81.5702L270.169 81.5702C270.183 82.5199 270.198 83.4686 270.212 84.4183L273.062 84.4183L273.062 81.5692C272.112 81.5548 271.163 81.5404 270.213 81.526L270.213 78.6327L267.322 78.6327L267.322 75.7064L270.215 75.7064L270.215 72.8923L273.107 72.8923L273.107 67.1067C274.057 67.0913 275.006 67.0758 275.956 67.0604L275.956 64.1691L281.74 64.1691L281.74 61.353L287.58 61.353L287.58 58.435L290.344 58.435L290.344 52.6741L281.843 52.6741L281.843 49.7056L278.896 49.7056L278.896 32.393C279.866 32.3622 280.835 32.3313 281.805 32.2994L281.805 29.4565L278.896 29.4565L278.896 26.5529L281.798 26.5529L281.798 23.7789C280.868 23.7275 279.932 23.674 278.838 23.6112L278.838 20.7302L276.061 20.7302L276.061 17.9717C277.016 17.9244 277.895 17.8812 278.941 17.8297L278.941 9.17959L284.694 9.17959L284.694 6.30994L287.526 6.30994C287.526 5.38288 287.526 4.45377 287.526 3.36517L284.748 3.36517L284.748 0.522271C285.667 0.520215 286.586 0.520211 287.611 0.520211L287.611 -2.37517L293.219 -2.37517L293.219 -5.2829L290.511 -5.2829C290.464 -6.26757 290.421 -7.14936 290.37 -8.18959L287.63 -8.18959L287.63 -13.8394C288.58 -13.8919 289.458 -13.9392 290.335 -13.9875L290.335 -16.8901L287.487 -16.8901L287.487 -19.5921L278.846 -19.5921L278.846 -16.8253L276.002 -16.8253L276.002 -19.7711L273.168 -19.7711L273.168 -22.6233L281.736 -22.6233L281.736 -28.3471C280.809 -28.3471 279.879 -28.3471 278.792 -28.3471L278.792 -25.567L275.94 -25.567L275.94 -28.449L273.032 -28.449L273.032 -37.0847L267.322 -37.0847L267.322 -42.8096L276.041 -42.8096L276.041 -39.906L278.798 -39.906C278.851 -38.9244 278.898 -38.0437 278.946 -37.1619L281.789 -37.1619L281.789 -42.8148L284.621 -42.8148L284.621 -45.6721L287.427 -45.6721L287.427 -48.6446L281.787 -48.6446L281.787 -51.5369L278.894 -51.5369C278.877 -52.4846 278.86 -53.4332 278.843 -54.3809C277.919 -54.3809 276.991 -54.3809 275.91 -54.3809L275.91 -62L284.68 -62L284.68 -60.2128L287.53 -60.2128L287.53 -62L387.507 -62L387.507 258L296.233 258L296.233 255.155L290.52 255.155ZM281.828 -57.3431L278.889 -57.3431C278.889 -56.2689 278.889 -55.346 278.889 -54.4241L284.584 -54.4241L284.584 -51.6182L290.422 -51.6182L290.422 -54.3829L287.53 -54.3829L287.53 -57.2752L284.637 -57.2752L284.637 -60.1654L281.829 -60.1654L281.829 -57.3431L281.828 -57.3431ZM287.575 -60.1654L287.575 -57.3194L290.425 -57.3194L290.425 -60.1654L287.575 -60.1654ZM293.38 -57.2731L290.468 -57.2731L290.468 -54.4282C291.438 -54.4446 292.408 -54.4611 293.38 -54.4786L293.38 -57.2731ZM296.108 -48.7022L296.108 -54.4374L293.427 -54.4374C293.429 -52.5535 293.429 -50.6675 293.429 -48.7022L296.108 -48.7022ZM299.013 -42.8539L299.013 -45.6227L296.252 -45.6227C296.252 -44.6977 296.252 -43.7758 296.252 -42.8539L299.013 -42.8539ZM307.715 -40.0501L307.715 -42.7561L304.98 -42.7561L304.98 -40.0501L307.715 -40.0501ZM296.205 -37.0683L296.205 -42.8076C295.318 -42.8076 294.428 -42.8076 293.357 -42.8076C293.357 -40.8537 293.357 -38.9604 293.357 -37.0683L296.205 -37.0683ZM307.707 -31.3794L307.707 -34.07L304.988 -34.07L304.988 -31.3794L307.707 -31.3794ZM290.442 -22.6932L290.442 -34.1348L293.312 -34.1348L293.312 -37.023L287.596 -37.023L287.596 -34.1698L276.056 -34.1698L276.056 -31.3279L281.783 -31.3279C281.783 -30.2445 281.783 -29.3164 281.783 -28.3904L284.618 -28.3904L284.618 -25.5382L287.472 -25.5382L287.472 -22.6922L290.441 -22.6922L290.442 -22.6932ZM301.913 0.489347L301.913 -2.24449L299.207 -2.24449L299.207 0.489347L301.913 0.489347ZM307.688 6.26261L307.688 3.50819L305.006 3.50819L305.006 6.26261L307.688 6.26261ZM293.226 6.32126L293.226 3.55243L290.464 3.55243C290.464 4.47743 290.464 5.39935 290.464 6.32126L293.226 6.32126ZM293.252 12.0184L293.252 9.3113L290.418 9.3113L290.418 6.36756C289.469 6.36447 288.519 6.36139 287.571 6.3583L287.571 12.0184L293.253 12.0184L293.252 12.0184ZM301.927 17.803L301.927 15.0969L299.192 15.0969L299.192 17.803L301.927 17.803ZM293.209 20.6963L293.209 17.9419L290.568 17.9419L290.568 20.6963L293.209 20.6963ZM281.853 32.3416C281.855 33.2635 281.855 34.1885 281.855 35.1876L284.533 35.1876L284.533 32.3416L281.853 32.3416ZM287.532 20.9196L281.837 20.9196C281.837 21.8909 281.837 22.8128 281.839 23.7357C283.737 23.7172 285.635 23.6987 287.533 23.6801L287.533 20.9206L287.532 20.9196ZM293.219 26.6352L293.219 23.7244L287.578 23.7244L287.578 35.1547L290.427 35.1547L290.427 26.6352L293.219 26.6352ZM299.015 32.3478L299.015 29.5861L296.262 29.5861L296.262 32.3478C297.143 32.3478 298.025 32.3478 299.015 32.3478ZM304.815 35.2092L304.815 32.4599L302.149 32.4599L302.149 35.2092L304.815 35.2092ZM296.207 35.238C296.21 34.2893 296.213 33.3417 296.216 32.393L293.451 32.393L293.451 35.238L296.207 35.238ZM299.022 38.0449L299.022 35.2833L296.253 35.2833L296.253 38.0449L299.022 38.0449ZM307.699 43.8212L307.699 41.1481L304.943 41.1481L304.943 43.8212L307.699 43.8212ZM299.107 43.9272L299.107 41.1656L296.338 41.1656L296.338 43.9272L299.107 43.9272ZM301.917 46.7259L301.917 43.9735L299.153 43.9735L299.153 46.7259L301.917 46.7259ZM290.415 46.7351L290.415 38.2898L284.773 38.2898L284.773 46.7351L290.415 46.7351ZM301.944 52.5187L301.944 49.8054L299.245 49.8054L299.245 52.5187L301.944 52.5187ZM275.999 69.8704L281.744 69.8704L281.744 67.1077L275.999 67.1077L275.999 69.8704ZM293.444 61.4178L293.444 64.1156L296.158 64.1156L296.158 61.4178L293.444 61.4178ZM304.791 64.164L304.791 61.4096L302.117 61.4096L302.117 64.164L304.791 64.164ZM281.787 64.2144L281.787 67.0604L284.621 67.0604L284.621 69.892L287.428 69.892L287.428 64.2144L281.787 64.2144ZM293.282 72.8008L293.282 67.1859L290.53 67.1859L290.53 72.8008L293.282 72.8008ZM276 81.5702L276 84.4162C276.97 84.4008 277.939 84.3853 278.911 84.3689C278.892 83.4357 278.874 82.5024 278.854 81.5682C277.903 81.5682 276.951 81.5702 276 81.5712L276 81.5702ZM273.108 75.8772L273.108 81.526L275.953 81.526L275.953 75.8772L273.108 75.8772ZM287.438 75.7445L287.438 72.9757L284.676 72.9757C284.676 73.9007 284.676 74.8226 284.676 75.7445L287.438 75.7445ZM284.631 78.7037L284.631 75.7898C283.748 75.7898 282.861 75.7898 281.819 75.7898L281.819 72.9685L278.9 72.9685L278.9 81.5219L281.702 81.5219L281.702 78.7026L284.632 78.7026L284.631 78.7037ZM293.314 84.4131C293.314 82.5662 293.314 80.7193 293.314 78.7654L287.647 78.7654L287.647 81.5054L290.376 81.5054L290.376 84.4131L293.313 84.4131L293.314 84.4131ZM296.128 87.22L296.128 84.4584L293.359 84.4584L293.359 87.22L296.128 87.22ZM287.483 87.2499L287.483 84.409L278.959 84.409C278.961 85.334 278.961 86.2611 278.961 87.2499L287.483 87.2499ZM275.956 84.4646L273.107 84.4646L273.107 87.3137L275.956 87.3137L275.956 84.4646ZM304.789 95.9288L304.789 93.231L302.09 93.231L302.09 95.9288L304.789 95.9288ZM299.026 98.7892L299.026 96.0996L296.307 96.0996L296.307 98.7892L299.026 98.7892ZM299.013 104.672L299.013 101.903L296.252 101.903L296.252 104.672L299.013 104.672ZM281.852 107.55C281.854 108.472 281.854 109.397 281.854 110.396L284.532 110.396L284.532 107.55L281.852 107.55ZM287.629 110.401L290.328 110.401L290.328 107.687L287.629 107.687L287.629 110.401ZM296.16 113.284L296.16 110.513L299.041 110.513L299.041 107.661L296.205 107.661L296.205 104.717C295.317 104.717 294.427 104.717 293.442 104.717L293.442 113.284L296.16 113.284ZM304.829 116.16L304.829 113.496L302.079 113.496L302.079 116.16L304.829 116.16ZM304.807 124.818L304.807 122.178L302.052 122.178L302.052 124.818L304.807 124.818ZM299.011 124.865L299.011 122.148L296.321 122.148L296.321 124.865L299.011 124.865ZM290.341 127.717L290.341 124.957C289.416 124.957 288.494 124.957 287.571 124.957L287.571 127.717L290.341 127.717ZM299.07 130.596L299.07 127.931L296.32 127.931L296.32 130.596L299.07 130.596ZM290.36 136.412L290.36 130.792L287.661 130.792L287.661 136.412L290.36 136.412ZM299.008 139.375L299.008 136.613L293.368 136.613L293.368 139.375C295.209 139.375 297.05 139.375 299.008 139.375ZM301.99 145.057L301.99 142.416L299.235 142.416L299.235 145.057L301.99 145.057ZM293.322 145.08L293.322 139.42L290.557 139.42L290.557 145.08L293.322 145.08ZM304.839 150.895L304.839 148.197L302.125 148.197L302.125 150.895L304.839 150.895ZM290.334 153.74L290.334 151.042L287.635 151.042L287.635 153.74L290.334 153.74ZM299.017 156.634L299.017 153.961L296.262 153.961L296.262 156.634L299.017 156.634ZM299.027 162.485L299.027 159.736L296.361 159.736L296.361 162.485L299.027 162.485ZM310.598 168.21L310.598 165.513L307.884 165.513L307.884 168.21L310.598 168.21ZM281.783 180.004C281.783 180.929 281.783 181.851 281.783 182.773L284.544 182.773L284.544 180.004L281.783 180.004ZM284.76 171.341L284.76 176.927L287.476 176.927L287.476 171.341L284.76 171.341ZM301.912 176.98L301.912 174.189C301.029 174.142 300.151 174.094 299.168 174.04L299.168 171.337L296.262 171.337L296.262 176.979C298.11 176.979 299.957 176.98 301.912 176.98ZM296.216 179.809L296.216 177.025L293.307 177.025L293.307 179.813C294.223 179.809 295.144 179.809 296.216 179.809ZM293.32 182.774C293.303 181.802 293.285 180.83 293.269 179.859L290.543 179.859L290.543 182.774L293.32 182.774ZM296.129 185.572L296.129 182.82L293.367 182.82C293.367 183.701 293.367 184.584 293.367 185.572L296.129 185.572ZM290.372 188.489L290.372 185.8L287.654 185.8L287.654 188.489L290.372 188.489ZM284.581 191.38L284.581 185.754L281.736 185.754L281.736 182.817C280.852 182.817 279.964 182.817 278.838 182.817L278.838 191.381C280.727 191.379 282.616 191.379 284.581 191.379L284.581 191.38ZM276.001 191.429L276.001 194.34L278.848 194.34C278.832 193.371 278.815 192.4 278.798 191.429L276.002 191.429L276.001 191.429ZM299.068 197.177L299.068 194.442C300.111 194.388 300.991 194.343 301.943 194.294L301.943 191.584L296.332 191.584L296.332 197.177L299.068 197.177ZM287.437 194.387L278.893 194.387L278.893 197.233L287.437 197.233L287.437 194.387ZM296.143 205.867L296.143 200.224L290.564 200.224L290.564 205.867L296.143 205.867ZM281.784 217.482L284.636 217.482L284.636 211.743C283.685 211.741 282.735 211.739 281.784 211.736L281.784 217.481L281.784 217.482ZM284.68 208.936L284.68 211.696L287.53 211.696L287.53 208.936L284.68 208.936ZM304.827 211.616L304.827 208.899L302.136 208.899L302.136 211.616L304.827 211.616ZM293.226 211.699L293.226 208.93L290.464 208.93C290.464 209.855 290.464 210.777 290.464 211.699L293.226 211.699ZM287.575 211.743L287.575 217.525L284.683 217.525L284.683 220.359L287.498 220.359L287.498 226.055L290.418 226.055L290.418 211.745C289.47 211.745 288.522 211.744 287.575 211.743ZM296.132 223.173L296.132 220.483L293.413 220.483L293.413 223.173L296.132 223.173ZM301.934 226.08L301.934 223.362L299.243 223.362L299.243 226.08L301.934 226.08ZM296.114 228.997L296.114 226.242L293.431 226.242L293.431 228.997L296.114 228.997ZM284.639 229.057L284.639 226.296L281.869 226.296L281.869 229.057L284.639 229.057ZM290.34 231.858L290.34 229.102L284.685 229.102C284.685 229.986 284.685 230.869 284.685 231.858L290.34 231.858ZM273.197 231.986L273.197 234.755L275.959 234.755C275.959 233.83 275.959 232.908 275.959 231.986L273.197 231.986ZM310.671 234.728L310.671 232.088L307.916 232.088L307.916 234.728L310.671 234.728ZM299.027 234.802L299.027 232.053L296.361 232.053L296.361 234.802L299.027 234.802ZM284.583 237.675L284.583 234.977L281.869 234.977L281.869 237.675L284.583 237.675ZM273.138 237.869L273.138 240.663C272.06 240.663 271.133 240.663 270.208 240.663L270.208 246.309L273.034 246.309L273.034 243.51L278.844 243.51L278.844 237.869L273.138 237.869ZM278.889 246.316L281.659 246.316L281.659 243.555C280.733 243.555 279.811 243.555 278.889 243.555L278.889 246.316ZM296.151 243.448L296.151 240.771L290.413 240.771L290.413 243.452C292.296 243.448 294.184 243.448 296.151 243.448ZM290.426 246.412C290.408 245.441 290.391 244.469 290.374 243.497L287.649 243.497L287.649 246.412L290.426 246.412ZM293.235 249.211L293.235 246.459L290.472 246.459C290.472 247.339 290.472 248.222 290.472 249.211L293.235 249.211ZM301.925 254.999L301.925 252.244L299.251 252.244L299.251 254.999L301.925 254.999Z" fill="#CFB06E"/>
<path d="M267.407 23.8145L273.133 23.8145L273.133 26.5154C274.113 26.5679 274.991 26.6152 276.026 26.6718L276.026 29.5024L278.848 29.5024L278.848 32.3514L275.906 32.3514L275.906 38.2173L273.045 38.2173L273.045 40.9285L267.381 40.9285L267.381 38.1227L270.161 38.1227L270.161 35.2911C269.238 35.2911 268.313 35.2911 267.406 35.2911L267.406 23.8135L267.407 23.8145ZM272.974 29.5878L270.208 29.5878C270.208 31.481 270.208 33.3649 270.208 35.2479L272.974 35.2479L272.974 29.5878Z" fill="#CFB06E"/>
<path d="M278.85 32.396L278.85 32.3516L278.897 32.3516L278.85 32.396Z" fill="#CFB06E"/>
<path d="M278.897 29.5034L278.85 29.5034L278.85 29.459L278.897 29.5034Z" fill="#CFB06E"/>
<path d="M278.897 49.7525L278.85 49.7525L278.85 49.708L278.897 49.7525Z" fill="#CFB06E"/>
<path d="M264.328 52.5332L264.374 52.5332C264.374 52.5508 264.374 52.5673 264.374 52.5849C264.376 52.587 264.328 52.5332 264.328 52.5332Z" fill="#CFB06E"/>
<path d="M278.849 49.752L278.849 55.3946L276.03 55.3946L276.03 52.6011L273.108 52.6011L273.108 49.8446L267.203 49.8446L267.203 52.5342L264.371 52.5342C264.369 50.6493 264.369 48.7653 264.369 46.7744L267.34 46.7744L267.34 44.0714L270.25 44.0714L270.25 46.7322L273.159 46.7322L273.159 44.0313L276.011 44.0313L276.011 49.752L278.847 49.752L278.849 49.752Z" fill="#CFB06E"/>
<path d="M267.284 64.1802C267.297 64.1936 267.321 64.2154 267.321 64.2154C267.306 64.2154 267.29 64.2154 267.273 64.2154L267.273 64.1709L267.321 64.1709L267.321 64.2154L267.284 64.1802Z" fill="#CFB06E"/>
<path d="M275.893 58.3704L275.893 61.2226L273.063 61.2226L273.063 67.0638L270.248 67.0638L270.248 64.1715L267.322 64.1715L267.322 61.2421L270.257 61.2421L270.257 52.6455L273.064 52.6455L273.064 58.3714L275.894 58.3714L275.893 58.3704Z" fill="#CFB06E"/>
<path d="M273.062 67.108L273.062 67.0625L273.108 67.0625L273.062 67.108Z" fill="#CFB06E"/>
<path d="M273.062 52.6441L273.062 52.5996L273.11 52.5996L273.11 52.6441L273.062 52.6441Z" fill="#CFB06E"/>
<path d="M275.961 0.52832L276.006 0.52832C276.006 0.543826 276.006 0.559333 276.006 0.573805L275.961 0.52832Z" fill="#CFB06E"/>
<path d="M284.697 0.524926C284.697 0.511488 284.697 0.498053 284.697 0.48358C284.714 0.48358 284.73 0.481511 284.747 0.481511C284.749 0.479443 284.695 0.526994 284.697 0.524926Z" fill="#CFB06E"/>
<path d="M278.893 -5.20605L284.699 -5.20605C284.699 -3.19966 284.699 -1.35892 284.697 0.482843C283.768 0.529145 282.84 0.573388 281.757 0.624834L281.757 3.34941L278.817 3.34941L278.817 0.528116L276.005 0.528116C276.004 -0.419519 276.003 -1.36818 276.002 -2.31582L278.893 -2.31582L278.893 -5.20605Z" fill="#CFB06E"/>
<path d="M275.957 116.286L275.957 116.238L276.002 116.238L275.957 116.286Z" fill="#CFB06E"/>
<path d="M275.956 116.238L273.148 116.238L273.148 119.106L270.167 119.106L270.167 122.021L267.322 122.021L267.322 116.288L270.237 116.288L270.237 113.304L273.11 113.304L273.11 110.502L275.955 110.502L275.955 116.237L275.956 116.238Z" fill="#CFB06E"/>
<path d="M267.323 116.243L267.323 116.289L267.277 116.289L267.323 116.243Z" fill="#CFB06E"/>
<path d="M273.11 110.503L273.064 110.503L273.11 110.458L273.11 110.503Z" fill="#CFB06E"/>
<path d="M270.168 3.47236L270.168 3.4248L270.212 3.47236L270.168 3.47236Z" fill="#CFB06E"/>
<path d="M273.059 6.36289L273.059 9.30354L275.897 9.30354L275.897 12.0312L267.4 12.0312L267.4 3.47266L270.167 3.47266L270.167 6.36289L273.059 6.36289Z" fill="#CFB06E"/>
<path d="M267.279 188.55L267.325 188.55L267.325 188.595L267.279 188.55Z" fill="#CFB06E"/>
<path d="M273.108 185.707L273.061 185.707L273.061 185.662L273.108 185.707Z" fill="#CFB06E"/>
<path d="M264.43 179.927C264.415 179.927 264.399 179.927 264.385 179.927L264.43 179.882L264.43 179.927Z" fill="#CFB06E"/>
<path d="M273.062 188.599L273.062 188.555C273.078 188.555 273.095 188.555 273.11 188.555L273.062 188.599Z" fill="#CFB06E"/>
<path d="M267.268 182.841L270.256 182.841L270.256 185.706L273.061 185.706L273.061 188.555C271.148 188.553 269.236 188.552 267.323 188.55L267.323 185.621L264.428 185.621L264.428 179.927C265.374 179.927 266.321 179.927 267.267 179.926L267.267 182.841L267.268 182.841Z" fill="#CFB06E"/>
<path d="M267.315 179.925C267.3 179.925 267.284 179.925 267.27 179.925L267.27 179.88L267.315 179.925Z" fill="#CFB06E"/>
<path d="M275.884 148.123L275.884 150.872L267.412 150.872L267.412 148.042L270.144 148.042L270.144 145.291L273.154 145.291L273.154 148.123L275.884 148.123Z" fill="#CFB06E"/>
<path d="M270.271 159.747L273.14 159.747L273.14 162.632L275.888 162.632L275.888 165.467C274.007 165.469 272.127 165.469 270.273 165.469L270.273 159.747L270.271 159.747Z" fill="#CFB06E"/>
<path d="M275.889 165.466C275.906 165.466 275.923 165.466 275.94 165.466C275.942 165.464 275.889 165.511 275.889 165.511L275.889 165.467L275.889 165.466Z" fill="#CFB06E"/>
<path d="M281.79 101.775L281.79 101.82L281.742 101.82L281.742 101.775L281.79 101.775Z" fill="#CFB06E"/>
<path d="M284.637 101.823L284.637 101.775L284.681 101.775L284.637 101.823Z" fill="#CFB06E"/>
<path d="M278.957 98.8283L278.957 96.1182L284.637 96.1182L284.637 101.775L281.79 101.775L281.79 98.8283L278.957 98.8283Z" fill="#CFB06E"/>
<path d="M276.092 101.819L281.743 101.819L281.743 104.668L278.849 104.668L278.849 107.562L276.092 107.562L276.092 101.819Z" fill="#CFB06E"/>
<path d="M281.744 104.712L281.744 104.667L281.79 104.667L281.744 104.712Z" fill="#CFB06E"/>
<path d="M278.85 107.605L278.85 107.561L278.897 107.561L278.85 107.605Z" fill="#CFB06E"/>
<path d="M270.133 20.727L270.133 17.8738L267.391 17.8738L267.391 15.1338L273.005 15.1338L273.005 20.727L270.132 20.727L270.133 20.727Z" fill="#CFB06E"/>
<path d="M273.105 6.31769L273.105 3.42437L270.211 3.42437L270.211 0.573242L275.96 0.573242C275.96 2.46645 275.96 4.36069 275.96 6.31769C274.886 6.31769 273.995 6.31769 273.106 6.31769L273.105 6.31769Z" fill="#CFB06E"/>
<path d="M275.961 0.52832L276.006 0.573805L275.961 0.573805L275.961 0.52832Z" fill="#CFB06E"/>
<path d="M270.168 3.4248L270.212 3.4248L270.212 3.47236L270.168 3.4248Z" fill="#CFB06E"/>
<path d="M273.106 6.31836L273.106 6.36281L273.059 6.36281L273.059 6.31836L273.106 6.31836Z" fill="#CFB06E"/>
<path d="M273.108 194.384L273.061 194.384L273.061 194.34L273.108 194.384Z" fill="#CFB06E"/>
<path d="M267.324 194.384L273.062 194.384L273.062 197.233C271.149 197.231 269.237 197.23 267.324 197.228L267.324 194.383L267.324 194.384Z" fill="#CFB06E"/>
<path d="M281.784 142.321L281.738 142.321L281.738 142.275L281.784 142.321Z" fill="#CFB06E"/>
<path d="M278.98 147.973L278.98 142.32L281.738 142.32L281.738 147.973L278.98 147.973Z" fill="#CFB06E"/>
<path d="M273.064 110.503L273.064 110.458L273.11 110.458L273.064 110.503Z" fill="#CFB06E"/>
<path d="M270.295 104.811L273.065 104.811L273.065 110.458C272.142 110.458 271.219 110.458 270.295 110.458L270.295 104.811Z" fill="#CFB06E"/>
<path d="M264.43 153.893L264.385 153.893L264.43 153.848L264.43 153.893Z" fill="#CFB06E"/>
<path d="M270.085 156.65L264.43 156.65L264.43 153.894L270.085 153.894L270.085 156.65Z" fill="#CFB06E"/>
<path d="M267.321 96.0347L267.273 96.0347L267.273 95.9902L267.321 95.9902C267.321 96.0047 267.321 96.0202 267.321 96.0347Z" fill="#CFB06E"/>
<path d="M267.279 101.771L267.325 101.771C267.325 101.787 267.325 101.802 267.325 101.817L267.279 101.771Z" fill="#CFB06E"/>
<path d="M270.169 101.771L267.325 101.771C267.324 99.8596 267.323 97.9469 267.322 96.0352L270.169 96.0352L270.169 101.771Z" fill="#CFB06E"/>
<path d="M270.212 96.0349L270.168 96.0349L270.168 95.9873L270.212 96.0349Z" fill="#CFB06E"/>
<path d="M270.168 72.8931L270.168 72.8486L270.216 72.8486L270.168 72.8931Z" fill="#CFB06E"/>
<path d="M270.168 72.8491L264.428 72.8491L264.428 70L270.168 70L270.168 72.8491Z" fill="#CFB06E"/>
<path d="M264.484 168.2L264.484 162.614L267.186 162.614L267.186 168.2L264.484 168.2Z" fill="#CFB06E"/>
<path d="M264.428 90.2051L264.428 84.4668L267.274 84.4668L267.274 90.2051L264.428 90.2051Z" fill="#CFB06E"/>
<path d="M267.273 84.4665L267.273 84.4189C267.288 84.4189 267.303 84.4189 267.318 84.4189C267.318 84.4345 267.318 84.45 267.318 84.4655L267.273 84.4655L267.273 84.4665Z" fill="#CFB06E"/>
<path d="M258.598 69.9521C258.613 69.9521 258.629 69.9521 258.643 69.9521L258.643 69.9976L258.598 69.9521Z" fill="#CFB06E"/>
<path d="M258.643 69.9512L258.643 67.1094L264.38 67.1094L264.38 69.9554C262.468 69.9533 260.555 69.9523 258.643 69.9502L258.643 69.9512Z" fill="#CFB06E"/>
<path d="M264.381 67.1101L264.381 67.0625L264.425 67.1101L264.381 67.1101Z" fill="#CFB06E"/>
<path d="M264.39 69.9912L264.427 69.957L264.427 70.0015L264.379 70.0015L264.379 69.957C264.394 69.957 264.411 69.957 264.427 69.957C264.427 69.957 264.404 69.9777 264.39 69.9912Z" fill="#CFB06E"/>
<path d="M261.605 29.3966L261.605 23.8096L264.332 23.8096L264.332 29.3966L261.605 29.3966Z" fill="#CFB06E"/>
<path d="M264.287 14.8943L258.641 14.8943L258.641 12.25L264.287 12.25L264.287 14.8943Z" fill="#CFB06E"/>
<path d="M258.715 174.027L258.715 168.387L261.382 168.387L261.382 174.027L258.715 174.027Z" fill="#CFB06E"/>
<path d="M261.482 20.7041L255.838 20.7041L255.838 18.0371L261.482 18.0371L261.482 20.7041Z" fill="#CFB06E"/>
<path d="M249.961 81.4256L249.961 78.7812L255.608 78.7813L255.608 81.4256L249.961 81.4256Z" fill="#CFB06E"/>
<path d="M252.945 14.9572L252.945 9.31152L255.629 9.31152L255.629 14.9572L252.945 14.9572Z" fill="#CFB06E"/>
<path d="M247.154 130.62L247.154 125.012L249.847 125.012L249.847 130.62L247.154 130.62Z" fill="#CFB06E"/>
<path d="M247.131 23.6174L247.131 17.9717L249.814 17.9717L249.814 23.6174L247.131 23.6174Z" fill="#CFB06E"/>
<path d="M232.654 23.5746L232.654 20.8994L238.302 20.8994L238.302 23.5746L232.654 23.5746Z" fill="#CFB06E"/>
<path d="M284.681 139.425L284.637 139.425L284.637 139.377L284.681 139.425Z" fill="#CFB06E"/>
<path d="M281.784 142.321L281.738 142.275L281.784 142.275C281.784 142.291 281.784 142.305 281.784 142.321Z" fill="#CFB06E"/>
<path d="M284.637 139.424L284.637 142.275L281.783 142.275C281.784 141.324 281.786 140.375 281.787 139.424L284.637 139.424Z" fill="#CFB06E"/>
<path d="M281.789 139.377C281.789 139.392 281.789 139.409 281.789 139.425L281.744 139.425L281.789 139.377Z" fill="#CFB06E"/>
<path d="M276.005 168.302C276.005 168.317 276.005 168.332 276.006 168.347L275.961 168.302L276.005 168.302Z" fill="#CFB06E"/>
<path d="M278.848 165.458L278.848 168.306C277.9 168.304 276.952 168.303 276.004 168.301C275.983 167.371 275.96 166.44 275.939 165.508C276.91 165.491 277.88 165.474 278.848 165.458Z" fill="#CFB06E"/>
<path d="M278.85 168.35L278.85 168.306C278.865 168.306 278.882 168.306 278.897 168.306L278.85 168.35Z" fill="#CFB06E"/>
<path d="M278.897 165.458C278.882 165.458 278.865 165.458 278.85 165.458L278.85 165.412L278.897 165.457L278.897 165.458Z" fill="#CFB06E"/>
<path d="M275.939 165.466C275.939 165.48 275.939 165.494 275.939 165.508C275.923 165.508 275.906 165.508 275.889 165.508C275.887 165.51 275.94 165.463 275.938 165.465L275.939 165.466Z" fill="#CFB06E"/>
<path d="M275.961 168.302L276.006 168.347L275.961 168.347L275.961 168.302Z" fill="#CFB06E"/>
<path d="M273.197 171.116L273.197 168.348L275.959 168.348C275.959 169.27 275.959 170.191 275.959 171.116L273.197 171.116Z" fill="#CFB06E"/>
<path d="M275.959 156.787L275.959 156.741L276.005 156.741L275.959 156.787Z" fill="#CFB06E"/>
<path d="M273.189 153.979L275.959 153.979L275.959 156.74C275.037 156.74 274.115 156.74 273.189 156.74L273.189 153.979Z" fill="#CFB06E"/>
<path d="M276.002 139.425L275.957 139.425L275.957 139.377L276.002 139.425Z" fill="#CFB06E"/>
<path d="M273.108 139.424L273.061 139.424L273.108 139.38L273.108 139.424Z" fill="#CFB06E"/>
<path d="M275.956 142.184L273.109 142.184L273.109 139.424L275.956 139.424L275.956 142.184Z" fill="#CFB06E"/>
<path d="M273.062 136.531L273.062 139.38C272.112 139.38 271.163 139.378 270.213 139.377L270.213 136.534C271.163 136.534 272.112 136.532 273.062 136.531Z" fill="#CFB06E"/>
<path d="M270.212 139.377L270.212 139.425L270.168 139.425L270.168 139.377C270.182 139.377 270.198 139.377 270.212 139.377Z" fill="#CFB06E"/>
<path d="M273.062 139.424L273.062 139.38C273.078 139.38 273.094 139.38 273.11 139.38L273.062 139.424Z" fill="#CFB06E"/>
<path d="M273.108 136.531C273.093 136.531 273.077 136.531 273.061 136.531L273.061 136.486L273.108 136.531Z" fill="#CFB06E"/>
<path d="M272.975 124.916L270.213 124.916L270.213 122.068L272.975 122.068L272.975 124.916Z" fill="#CFB06E"/>
<path d="M270.212 122.069L270.168 122.069L270.168 122.021L270.212 122.021L270.212 122.069Z" fill="#CFB06E"/>
<path d="M270.168 124.917L270.212 124.917L270.212 124.965L270.168 124.917Z" fill="#CFB06E"/>
<path d="M267.315 179.925L267.27 179.88L267.315 179.88L267.315 179.925Z" fill="#CFB06E"/>
<path d="M270.076 177.111L270.076 179.88L267.314 179.88C267.314 178.958 267.314 178.036 267.314 177.111L270.076 177.111Z" fill="#CFB06E"/>
<path d="M270.078 173.988L267.379 173.988L267.379 171.29L270.078 171.29L270.078 173.988Z" fill="#CFB06E"/>
<path d="M267.321 139.424L267.273 139.424L267.273 139.38C267.289 139.38 267.306 139.38 267.321 139.38L267.321 139.424Z" fill="#CFB06E"/>
<path d="M270.169 142.184L267.322 142.184L267.322 139.424L270.169 139.424L270.169 142.184Z" fill="#CFB06E"/>
<path d="M267.321 136.486L267.321 136.531L267.273 136.531L267.273 136.486L267.321 136.486Z" fill="#CFB06E"/>
<path d="M267.322 133.728L270.169 133.728L270.169 136.487L267.322 136.487C267.322 135.563 267.322 134.64 267.322 133.728Z" fill="#CFB06E"/>
<path d="M270.168 136.486L270.212 136.486L270.212 136.534C270.198 136.534 270.182 136.534 270.168 136.534L270.168 136.486Z" fill="#CFB06E"/>
<path d="M270.212 81.5718L270.168 81.5718C270.168 81.5563 270.168 81.5419 270.168 81.5264L270.213 81.5718L270.212 81.5718Z" fill="#CFB06E"/>
<path d="M267.279 188.55L267.325 188.595L267.279 188.595L267.279 188.55Z" fill="#CFB06E"/>
<path d="M264.518 191.365L264.518 188.596L267.279 188.596C267.279 189.518 267.279 190.44 267.279 191.365L264.518 191.365Z" fill="#CFB06E"/>
<path d="M264.385 139.375L264.43 139.375L264.43 139.42L264.385 139.375Z" fill="#CFB06E"/>
<path d="M264.432 139.376L264.432 136.531L267.275 136.531L267.275 139.38C266.327 139.379 265.379 139.377 264.432 139.375L264.432 139.376Z" fill="#CFB06E"/>
<path d="M267.323 116.243L267.277 116.289L267.277 116.243L267.323 116.243Z" fill="#CFB06E"/>
<path d="M264.508 113.482L267.278 113.482L267.278 116.243C266.355 116.243 265.433 116.243 264.508 116.243L264.508 113.482Z" fill="#CFB06E"/>
<path d="M267.17 110.397L264.492 110.397L264.492 107.552C265.406 107.55 266.318 107.55 267.17 107.55L267.17 110.396L267.17 110.397Z" fill="#CFB06E"/>
<path d="M264.491 107.551C264.474 107.551 264.457 107.551 264.44 107.551C264.437 107.553 264.491 107.506 264.491 107.506L264.491 107.55L264.491 107.551Z" fill="#CFB06E"/>
<path d="M264.385 104.663L264.43 104.663L264.43 104.709L264.385 104.663Z" fill="#CFB06E"/>
<path d="M264.432 104.663L264.432 101.816L267.28 101.816C267.28 102.744 267.28 103.674 267.28 104.663L264.432 104.663Z" fill="#CFB06E"/>
<path d="M267.279 101.771L267.325 101.817L267.279 101.817C267.279 101.801 267.279 101.786 267.279 101.771Z" fill="#CFB06E"/>
<path d="M264.427 93.1431L264.379 93.1431L264.379 93.0986L264.427 93.0986L264.427 93.1431Z" fill="#CFB06E"/>
<path d="M267.274 95.9907L264.428 95.9907L264.428 93.1416L267.274 93.1416L267.274 95.9907Z" fill="#CFB06E"/>
<path d="M267.321 78.6782L267.273 78.6782L267.273 78.6338L267.321 78.6782Z" fill="#CFB06E"/>
<path d="M264.514 78.6777L267.274 78.6777L267.274 81.5268L264.514 81.5268L264.514 78.6777Z" fill="#CFB06E"/>
<path d="M267.273 81.5273L267.321 81.5273C267.321 81.5418 267.321 81.5573 267.321 81.5718L267.273 81.5718L267.273 81.5273Z" fill="#CFB06E"/>
<path d="M264.381 67.0635L264.425 67.0635L264.425 67.111L264.381 67.0635Z" fill="#CFB06E"/>
<path d="M264.426 67.0639C264.428 66.1162 264.429 65.1686 264.43 64.222C265.378 64.2199 266.327 64.2179 267.275 64.2158L267.275 67.0639L264.426 67.0639Z" fill="#CFB06E"/>
<path d="M264.43 64.1758C264.43 64.1913 264.43 64.2068 264.43 64.2213C264.415 64.2213 264.4 64.2213 264.385 64.2213L264.43 64.1758Z" fill="#CFB06E"/>
<path d="M261.613 177.121L264.383 177.121L264.383 179.882C263.461 179.882 262.539 179.882 261.613 179.882L261.613 177.121Z" fill="#CFB06E"/>
<path d="M264.385 179.927L264.385 179.882L264.43 179.882L264.385 179.927Z" fill="#CFB06E"/>
<path d="M264.385 153.893L264.385 153.848L264.43 153.848L264.385 153.893Z" fill="#CFB06E"/>
<path d="M261.536 151.001L261.49 151.001L261.536 150.955L261.536 151.001Z" fill="#CFB06E"/>
<path d="M264.383 153.848C263.455 153.848 262.525 153.848 261.535 153.848L261.535 151.001L264.383 151.001L264.383 153.848Z" fill="#CFB06E"/>
<path d="M264.385 139.376L264.43 139.421L264.385 139.421L264.385 139.376Z" fill="#CFB06E"/>
<path d="M261.623 142.19L261.623 139.421L264.385 139.421C264.385 140.343 264.385 141.265 264.385 142.19L261.623 142.19Z" fill="#CFB06E"/>
<path d="M264.291 125.043L264.291 127.805L261.537 127.805L261.537 125.043L264.291 125.043Z" fill="#CFB06E"/>
<path d="M261.538 127.805L261.538 127.85L261.492 127.805L261.538 127.805Z" fill="#CFB06E"/>
<path d="M261.588 121.981L261.588 119.247L264.294 119.247L264.294 121.981L261.588 121.981Z" fill="#CFB06E"/>
<path d="M264.441 107.551C264.441 107.537 264.441 107.522 264.441 107.508C264.458 107.508 264.475 107.508 264.492 107.508C264.494 107.506 264.44 107.553 264.442 107.551L264.441 107.551Z" fill="#CFB06E"/>
<path d="M264.385 104.663L264.43 104.709L264.385 104.709C264.385 104.693 264.385 104.678 264.385 104.663Z" fill="#CFB06E"/>
<path d="M261.631 107.511L261.631 104.709L264.386 104.709C264.405 105.642 264.423 106.574 264.441 107.509C263.483 107.511 262.527 107.511 261.631 107.511Z" fill="#CFB06E"/>
<path d="M261.619 93.0981L261.619 90.249L264.38 90.249L264.38 93.0981L261.619 93.0981Z" fill="#CFB06E"/>
<path d="M264.381 90.2485L264.381 90.2041L264.428 90.2041L264.428 90.2485L264.381 90.2485Z" fill="#CFB06E"/>
<path d="M261.613 61.415L264.383 61.415L264.383 64.1756C263.461 64.1756 262.539 64.1756 261.613 64.1756L261.613 61.415Z" fill="#CFB06E"/>
<path d="M264.43 64.1758L264.385 64.2213L264.385 64.1758L264.43 64.1758Z" fill="#CFB06E"/>
<path d="M264.328 52.5352C264.328 52.5352 264.374 52.5869 264.372 52.5848C264.357 52.5848 264.343 52.5848 264.328 52.5848C264.328 52.5683 264.328 52.5518 264.328 52.5342L264.328 52.5352Z" fill="#CFB06E"/>
<path d="M261.535 55.3969L261.535 52.6508C262.466 52.6292 263.396 52.6065 264.329 52.5859C264.331 53.5428 264.331 54.4966 264.331 55.3969L261.536 55.3969L261.535 55.3969Z" fill="#CFB06E"/>
<path d="M264.295 40.9312L261.539 40.9312L261.539 38.291L264.295 38.291L264.295 40.9312Z" fill="#CFB06E"/>
<path d="M264.298 3.33537L261.535 3.33537L261.535 0.583008L264.298 0.583008L264.298 3.33537Z" fill="#CFB06E"/>
<path d="M258.734 159.589L258.734 156.836L261.417 156.836L261.417 159.589L258.734 159.589Z" fill="#CFB06E"/>
<path d="M261.49 151.001L261.49 150.954C261.506 150.954 261.52 150.954 261.536 150.954L261.49 151L261.49 151.001Z" fill="#CFB06E"/>
<path d="M258.643 150.946L258.643 148.191L261.49 148.191L261.49 150.954C260.541 150.951 259.592 150.948 258.643 150.946Z" fill="#CFB06E"/>
<path d="M258.598 150.946C258.613 150.946 258.629 150.946 258.643 150.946L258.643 150.992L258.598 150.946Z" fill="#CFB06E"/>
<path d="M258.729 130.618L258.729 127.85L261.49 127.85C261.49 128.772 261.49 129.693 261.49 130.618L258.729 130.618Z" fill="#CFB06E"/>
<path d="M261.492 127.805L261.538 127.85L261.492 127.85L261.492 127.805Z" fill="#CFB06E"/>
<path d="M261.405 98.7934L258.643 98.7934L258.643 96.041L261.405 96.041L261.405 98.7934Z" fill="#CFB06E"/>
<path d="M258.641 96.0406L258.596 96.0406L258.641 95.9951L258.641 96.0406Z" fill="#CFB06E"/>
<path d="M258.721 49.8438L261.491 49.8438L261.491 52.6043C260.568 52.6043 259.646 52.6043 258.721 52.6043L258.721 49.8438Z" fill="#CFB06E"/>
<path d="M261.49 52.6055L261.536 52.6055C261.536 52.6055 261.511 52.6303 261.497 52.6437L261.536 52.6055L261.536 52.6499C261.52 52.6499 261.505 52.6499 261.49 52.651L261.49 52.6055Z" fill="#CFB06E"/>
<path d="M261.499 0.575299L261.536 0.538086L261.536 0.583571L261.49 0.583571L261.49 0.538086L261.536 0.538086C261.536 0.538086 261.512 0.561861 261.499 0.575299Z" fill="#CFB06E"/>
<path d="M258.721 0.537935L258.721 -2.22266L261.491 -2.22266L261.491 0.537935C260.568 0.537935 259.646 0.537935 258.721 0.537935Z" fill="#CFB06E"/>
<path d="M255.812 185.606L255.812 182.852L258.495 182.852L258.495 185.606L255.812 185.606Z" fill="#CFB06E"/>
<path d="M255.836 153.76L255.836 150.991L258.598 150.991C258.598 151.913 258.598 152.835 258.598 153.76L255.836 153.76Z" fill="#CFB06E"/>
<path d="M258.598 150.946L258.643 150.992L258.598 150.992L258.598 150.946Z" fill="#CFB06E"/>
<path d="M255.779 113.268L255.779 110.604L258.53 110.604L258.53 113.268L255.779 113.268Z" fill="#CFB06E"/>
<path d="M258.596 96.0406L258.596 95.9951L258.641 95.9951L258.596 96.0406Z" fill="#CFB06E"/>
<path d="M255.826 95.995L255.826 93.2344L258.596 93.2344L258.596 95.995C257.674 95.995 256.752 95.995 255.826 95.995Z" fill="#CFB06E"/>
<path d="M255.83 90.1332L255.83 87.3994L258.536 87.3994L258.536 90.1332L255.83 90.1332Z" fill="#CFB06E"/>
<path d="M258.598 69.9521L258.643 69.9976L258.598 69.9976L258.598 69.9521Z" fill="#CFB06E"/>
<path d="M255.836 72.7669L255.836 69.998L258.598 69.998C258.598 70.92 258.598 71.8419 258.598 72.7669L255.836 72.7669Z" fill="#CFB06E"/>
<path d="M255.618 179.787L252.855 179.787L252.855 177.034L255.618 177.034L255.618 179.787Z" fill="#CFB06E"/>
<path d="M252.854 177.035L252.809 177.035L252.854 176.989L252.854 177.035Z" fill="#CFB06E"/>
<path d="M252.936 139.308L252.936 136.574L255.642 136.574L255.642 139.308L252.936 139.308Z" fill="#CFB06E"/>
<path d="M252.947 107.522L252.947 104.768L255.63 104.768L255.63 107.522L252.947 107.522Z" fill="#CFB06E"/>
<path d="M255.661 64.0739L252.906 64.0739L252.906 61.3926L255.661 61.3926L255.661 64.0739Z" fill="#CFB06E"/>
<path d="M250.039 176.988L250.039 174.228L252.809 174.228L252.809 176.988C251.887 176.988 250.964 176.988 250.039 176.988Z" fill="#CFB06E"/>
<path d="M252.809 177.035L252.809 176.989L252.854 176.989L252.809 177.035Z" fill="#CFB06E"/>
<path d="M249.963 159.624L249.963 156.862L252.716 156.862L252.716 159.624L249.963 159.624Z" fill="#CFB06E"/>
<path d="M250.035 119.069L250.035 116.319L252.701 116.319L252.701 119.069L250.035 119.069Z" fill="#CFB06E"/>
<path d="M252.724 98.7934L249.961 98.7934L249.961 96.041L252.724 96.041L252.724 98.7934Z" fill="#CFB06E"/>
<path d="M249.96 96.0406L249.914 96.0406L249.96 95.9951L249.96 96.0406Z" fill="#CFB06E"/>
<path d="M249.99 49.6307L249.99 46.9658L252.741 46.9658L252.741 49.6307L249.99 49.6307Z" fill="#CFB06E"/>
<path d="M250.012 43.8239L250.012 41.1426L252.767 41.1426L252.767 43.8239L250.012 43.8239Z" fill="#CFB06E"/>
<path d="M247.154 162.438L247.154 159.669L249.916 159.669C249.916 160.591 249.916 161.513 249.916 162.438L247.154 162.438Z" fill="#CFB06E"/>
<path d="M249.916 159.67L249.916 159.624C249.916 159.624 249.94 159.648 249.953 159.661L249.916 159.624L249.962 159.624L249.962 159.67L249.916 159.67Z" fill="#CFB06E"/>
<path d="M247.148 142.164L247.148 139.523L249.904 139.523L249.904 142.164L247.148 142.164Z" fill="#CFB06E"/>
<path d="M247.102 133.736L249.857 133.736L249.857 136.418L247.102 136.418L247.102 133.736Z" fill="#CFB06E"/>
<path d="M247.145 95.995L247.145 93.2344L249.914 93.2344L249.914 95.995C248.992 95.995 248.07 95.995 247.145 95.995Z" fill="#CFB06E"/>
<path d="M249.914 96.0406L249.914 95.9951L249.96 95.9951L249.914 96.0406Z" fill="#CFB06E"/>
<path d="M249.848 67.2139L249.848 69.8788L247.098 69.8788L247.098 67.2139L249.848 67.2139Z" fill="#CFB06E"/>
<path d="M247.164 64.0835L247.164 61.3291L249.838 61.3291L249.838 64.0835L247.164 64.0835Z" fill="#CFB06E"/>
<path d="M247.154 55.4137L247.154 52.6953L249.846 52.6953L249.846 55.4137L247.154 55.4137Z" fill="#CFB06E"/>
<path d="M247.109 3.36384L247.109 0.666016L249.808 0.666016L249.808 3.36384L247.109 3.36384Z" fill="#CFB06E"/>
<path d="M246.923 180.003L246.923 182.716L244.225 182.716L244.225 180.003L246.923 180.003Z" fill="#CFB06E"/>
<path d="M246.937 110.364L244.174 110.364L244.174 107.611L246.937 107.611L246.937 110.364Z" fill="#CFB06E"/>
<path d="M244.174 107.611L244.129 107.611L244.174 107.565L244.174 107.611Z" fill="#CFB06E"/>
<path d="M244.275 87.2766L244.275 84.5273L246.941 84.5273L246.941 87.2766L244.275 87.2766Z" fill="#CFB06E"/>
<path d="M244.275 78.5989L244.275 75.8496L246.941 75.8496L246.941 78.5989L244.275 78.5989Z" fill="#CFB06E"/>
<path d="M246.937 35.1547L244.174 35.1547L244.174 32.4023L246.937 32.4023L246.937 35.1547Z" fill="#CFB06E"/>
<path d="M244.174 32.4029L244.129 32.4029L244.174 32.3574L244.174 32.4029Z" fill="#CFB06E"/>
<path d="M241.357 104.805L244.127 104.805L244.127 107.565C243.205 107.565 242.283 107.565 241.357 107.565L241.357 104.805Z" fill="#CFB06E"/>
<path d="M244.127 107.611L244.127 107.565L244.172 107.565L244.127 107.611Z" fill="#CFB06E"/>
<path d="M241.338 61.1717L241.338 58.5068L244.088 58.5068L244.088 61.1717L241.338 61.1717Z" fill="#CFB06E"/>
<path d="M241.357 32.3563L241.357 29.5957L244.127 29.5957L244.127 32.3563C243.205 32.3563 242.283 32.3563 241.357 32.3563Z" fill="#CFB06E"/>
<path d="M244.129 32.4029L244.129 32.3574L244.174 32.3574L244.129 32.4029Z" fill="#CFB06E"/>
<path d="M238.436 182.673L238.436 179.976L241.15 179.976L241.15 182.673L238.436 182.673Z" fill="#CFB06E"/>
<path d="M238.445 136.436L238.445 133.718L241.137 133.718L241.137 136.436L238.445 136.436Z" fill="#CFB06E"/>
<path d="M238.389 69.8548L238.389 67.1816L241.144 67.1816L241.144 69.8548L238.389 69.8548Z" fill="#CFB06E"/>
<path d="M238.432 14.9025L238.432 12.2119L241.151 12.2119L241.151 14.9025L238.432 14.9025Z" fill="#CFB06E"/>
<path d="M235.561 107.553L235.561 104.799L238.235 104.799L238.235 107.553L235.561 107.553Z" fill="#CFB06E"/>
<path d="M235.568 40.9742L235.568 38.2764L238.283 38.2764L238.283 40.9742L235.568 40.9742Z" fill="#CFB06E"/>
<path d="M232.691 168.22L232.691 165.466L235.333 165.466L235.333 168.22L232.691 168.22Z" fill="#CFB06E"/>
<path d="M232.664 101.72L232.664 98.9668L235.346 98.9668L235.346 101.72L232.664 101.72Z" fill="#CFB06E"/>
<path d="M232.672 32.2863L232.672 29.5967L235.39 29.5967L235.39 32.2863L232.672 32.2863Z" fill="#CFB06E"/>
<path d="M226.896 194.293L226.896 191.595L229.595 191.595L229.595 194.293L226.896 194.293Z" fill="#CFB06E"/>
<path d="M226.893 35.1712L226.893 32.498L229.648 32.498L229.648 35.1712L226.893 35.1712Z" fill="#CFB06E"/>
<path d="M224 136.413L224 133.74L226.755 133.74L226.755 136.413L224 136.413Z" fill="#CFB06E"/>
<path d="M281.871 55.626L287.533 55.626L287.533 58.3907C285.65 58.3907 283.766 58.3907 281.871 58.3907L281.871 55.626Z" fill="#CFB06E"/>
<path d="M287.535 58.4361L287.535 58.3906L287.581 58.3906L287.535 58.4361Z" fill="#CFB06E"/>
<path d="M287.581 116.28L287.535 116.28L287.535 116.234L287.581 116.28Z" fill="#CFB06E"/>
<path d="M287.535 116.279C287.535 117.201 287.535 118.123 287.535 119.048L284.773 119.048L284.773 116.279L287.535 116.279Z" fill="#CFB06E"/>
<path d="M210.268 84.5577L213.256 84.5577L213.256 81.6922L216.061 81.6922L216.061 78.8431C214.148 78.8452 212.236 78.8462 210.323 78.8482L210.323 81.7776L207.428 81.7776L207.428 87.4716C208.374 87.4716 209.321 87.4716 210.267 87.4727L210.267 84.5577L210.268 84.5577Z" fill="#CFB06E" fill-opacity="0.5"/>
<path d="M192.961 50L192.961 52.7606L195.898 52.7606L195.898 55.6035L198.628 55.6035L198.628 50L192.961 50Z" fill="#CFB06E" fill-opacity="0.5"/>
<path d="M190.154 136.778L190.154 142.387L192.847 142.387L192.847 136.778L190.154 136.778Z" fill="#CFB06E" fill-opacity="0.5"/>
<path d="M207.383 113.55C206.455 113.55 205.525 113.55 204.535 113.55L204.535 116.397L207.383 116.397L207.383 113.55Z" fill="#CFB06E" fill-opacity="0.5"/>
<path d="M204.405 168.605L201.643 168.605L201.643 171.357L204.405 171.357L204.405 168.605Z" fill="#CFB06E" fill-opacity="0.5"/>
<path d="M189.922 87.3955L189.922 84.6823L187.223 84.6823L187.223 87.3955L189.922 87.3955Z" fill="#CFB06E" fill-opacity="0.5"/>
<path d="M187.275 180.122L187.275 182.871L189.941 182.871L189.941 180.122L187.275 180.122Z" fill="#CFB06E" fill-opacity="0.5"/>
<path d="M167 130.985L167 133.658L169.755 133.658L169.755 130.985L167 130.985Z" fill="#CFB06E" fill-opacity="0.5"/>
</g>
<defs>
<linearGradient id="paint0_linear_459_17" x1="0" y1="98" x2="320" y2="98" gradientUnits="userSpaceOnUse">
<stop stop-color="#151515"/>
<stop offset="1" stop-color="#484848"/>
</linearGradient>
<clipPath id="clip0_459_17">
<rect width="320" height="196" rx="10" fill="white"/>
</clipPath>
</defs>
</svg>
