<svg width="320" height="196" viewBox="0 0 320 196" fill="none" xmlns="http://www.w3.org/2000/svg">
<g clip-path="url(#clip0_1149_1809)">
<rect width="320" height="196" rx="10" fill="url(#paint0_radial_1149_1809)"/>
<path d="M73.9999 164.538H71.998V166.403H73.9999V164.538Z" fill="#F2A317"/>
<path d="M76.0011 158.936H74.002V160.804H76.0011V158.936Z" fill="#F2A317"/>
<path d="M35.9999 140.271H33.998V142.133H35.9999V140.271Z" fill="#FAF1CE"/>
<path d="M82.0036 134.666H80.0018H77.9999H76.0007V136.533V138.398V140.271V142.133V144V145.87V147.732V149.599V151.469V153.331V155.199H74.0015V157.066V158.936H76.0007V160.801H74.0015V158.936H71.9997V160.801H70.0032V162.666H68.0013V164.538V166.403H66.0021H64.0029V168.268H62.0011V170.138H60.0019H58V172H60.0019H62.0011H64.0029H66.0021V170.138H68.0013H70.0032V168.268H71.9997V166.403V164.538H74.0015V166.403H76.0007V164.538V162.666H77.9999V160.801H80.0018V158.936V157.066H82.0036V155.199V153.331H84.0002V151.469V149.599V147.732V145.87V144V142.133V140.271V138.398V136.533V134.666H82.0036Z" fill="#F2A317"/>
<path d="M62.0011 170.09V170.138H58V172H66.0021V170.138H70.0032V170.09H62.0011Z" fill="#1D1D1B"/>
<path d="M73.9999 129.069H71.998V130.934H73.9999V129.069Z" fill="white"/>
<path d="M72.0008 134.666V129.069H70.0016V127.204H68.0024V125.334H66.0005V123.47H64.0014V121.602H62.0022V119.732H58.0011V117.865H41.9996V119.732H38.0012V121.602H35.9993V123.47H33.9975V125.334H31.9983V127.204H29.9991V130.936H27.9972V134.668H25.998V153.334H27.9972V157.066H29.9991V160.804H31.9983V162.668H33.9975V164.541H35.9993V166.406H38.0012V168.27H41.9996V170.14H58.0011V168.27H62.0022V166.406H64.0014V164.541H66.0005V162.668H68.0024V160.804H70.0016V158.936H72.0008V155.201H74.0026V134.668H72.0008V134.666ZM34.0002 136.533V132.801H36.002V130.936H38.0039V129.072H40.0031V127.207H42.0023V125.337H58.0038V127.207H60.003V129.072H62.0022V130.936H64.0014V132.801H66.0005V136.533H68.0024V151.469H66.0005V155.201H64.0014V157.066H62.0022V158.936H60.003V160.804H58.0038V162.668H42.0023V160.804H40.0031V158.936H38.0039V157.066H36.002V155.201H34.0002V151.469H32.001V136.533H34.0002Z" fill="#FDCD00"/>
<path d="M38.0011 134.666H36.002V136.533V138.398V140.271V142.133V144V145.87V147.732V149.599H38.0011V151.469V153.331H40.003V155.199H42.0022V157.066H44.0014H46.0006V158.936H48.0024H50.0016H52.0008H54.0027H56.0045V157.066H58.001H60.0029V155.199H62.0021V153.331H64.004V151.469V149.599H66.0032V147.732V145.87V144V142.133V140.271V138.398H64.004V136.533V134.666V132.801H62.0021V130.936H60.0029V129.069H58.001H56.0045V127.204H54.0027H52.0008H50.0016H48.0024H46.0006H44.0014V129.069H42.0022H40.003V130.936H38.0011V132.801V134.666Z" fill="#FDCD00"/>
<path d="M80.0022 129.069V127.204V125.334H78.0003V127.204H76.0011H74.002V129.069V130.936V132.801H76.0011V130.936H78.0003H80.0022V132.801V134.666H82.0041V132.801V130.936V129.069H80.0022Z" fill="#F2A317"/>
<path d="M76.0007 123.469V121.602H74.0015H71.9997V119.732H70.0032V117.865H68.0013H66.0021V116H64.0029H62.0011H60.0019H58V117.865H60.0019H62.0011V119.732H64.0029V121.602H66.0021V123.469H68.0013V125.334H70.0032H71.9997H74.0015H76.0007H77.9999V123.469H76.0007Z" fill="#F2A317"/>
<path d="M80.0022 129.069V127.204V125.334H78.0003V127.204H76.0011H74.002V129.069V130.936V132.801H76.0011V130.936H78.0003H80.0022V132.801V134.666H82.0041V132.801V130.936V129.069H80.0022Z" fill="#F2A317"/>
<path d="M80.0019 129.069V127.204V125.334H78V127.204V129.069H80.0019V130.936V132.798V134.666H82.0037V132.798V130.936V129.069H80.0019Z" fill="#1D1D1B"/>
<path d="M72.0011 119.732H70.002V121.602H72.0011V119.732Z" fill="#1D1D1B"/>
<path d="M72 123.469H74.0019H76.0011V121.602H74.0019H72V123.469Z" fill="#1D1D1B"/>
<path d="M68.0011 119.732H70.003V117.865H68.0011H66.002V119.732H68.0011Z" fill="#1D1D1B"/>
<path d="M77.9992 123.469H76V125.334H77.9992V123.469Z" fill="#1D1D1B"/>
<path d="M60.0019 117.865H62.0011H64.0029H66.0021V116H64.0029H62.0011H60.0019H58V117.865H60.0019Z" fill="#1D1D1B"/>
<path d="M73.998 158.936H71.9961V160.801H73.998V158.936Z" fill="#1D1D1B"/>
<path d="M82.0019 134.666H80H82.0019V136.533V138.398V140.27V142.132V144V145.87V147.732V149.599V151.469V153.331H83.9984V151.469V149.599V147.732V145.87V144V142.132V140.27V138.398V136.533V134.666H82.0019Z" fill="#1D1D1B"/>
<path d="M73.998 162.665V164.538V166.403H75.9972V164.538V162.665H73.998Z" fill="#1D1D1B"/>
<path d="M77.9972 160.801H75.998V162.665H77.9972V160.801Z" fill="#1D1D1B"/>
<path d="M79.998 153.331V155.199V157.069H77.9961V158.936V160.801H79.998V158.936V157.069H81.9998V155.199V153.331H79.998Z" fill="#1D1D1B"/>
<path d="M65.9992 170.138H64V172H65.9992V170.138Z" fill="#1D1D1B"/>
<path d="M71.9965 166.403V164.538H70V166.403V168.267H71.9965V166.403Z" fill="#1D1D1B"/>
<path d="M69.9972 168.268H67.998V170.138H69.9972V168.268Z" fill="#1D1D1B"/>
<path d="M57.9989 168.268V170.138H56.0023H54.0005H51.9986H49.9994H48.0002H45.9984H43.9992H42V172H43.9992H45.9984H48.0002H49.9994H51.9986H54.0005H56.0023H57.9989V170.138H60.0007H61.9999V168.268H60.0007H57.9989Z" fill="#1D1D1B"/>
<path d="M63.9992 166.403H62V168.268H63.9992V166.403Z" fill="#1D1D1B"/>
<path d="M66.0011 164.538H64.002V166.403H66.0011H68.0003V164.538V162.666H66.0011V164.538Z" fill="#1D1D1B"/>
<path d="M69.9992 160.801H68V162.665H69.9992V160.801Z" fill="#1D1D1B"/>
<path d="M72.0011 158.936H70.002V160.804H72.0011V158.936Z" fill="#1D1D1B"/>
<path d="M71.998 157.069V158.936H73.9999V157.069V155.199H71.998V157.069Z" fill="#1D1D1B"/>
<path d="M74.002 136.533V138.398V140.27V142.132V144V145.87V147.732V149.599V151.469V153.331V155.199H76.0011V153.331V151.469V149.599V147.732V145.87V144V142.132V140.27V138.398V136.533H74.002Z" fill="#1D1D1B"/>
<path d="M71.998 132.801V134.666H73.9999V132.801V130.936H71.998V132.801Z" fill="#1D1D1B"/>
<path d="M72.0011 127.204H70.002V129.069H72.0011V127.204Z" fill="#1D1D1B"/>
<path d="M62.0011 157.069H60.002V158.936H62.0011V157.069Z" fill="#1D1D1B"/>
<path d="M64.0019 136.533V138.398H66.0011V140.271V142.133V144V145.87V147.732V149.599H64.0019V151.469V153.331H62V155.199V157.069H64.0019V155.199H66.0011V153.331V151.469H68.0002V149.599V147.732V145.87V144V142.133V140.271V138.398V136.533H66.0011V134.666V132.798H64.0019V134.666V136.533Z" fill="#1D1D1B"/>
<path d="M63.9992 130.936H62V132.798H63.9992V130.936Z" fill="#1D1D1B"/>
<path d="M62.0011 129.069H60.002V130.934H62.0011V129.069Z" fill="#1D1D1B"/>
<path d="M69.9992 125.334H68V127.204H69.9992V125.334Z" fill="#1D1D1B"/>
<path d="M68.0038 123.469H66.002V125.334H68.0038V123.469Z" fill="#1D1D1B"/>
<path d="M66.0011 121.602H64.002V123.469H66.0011V121.602Z" fill="#1D1D1B"/>
<path d="M63.9992 119.732H62V121.602H63.9992V119.732Z" fill="#1D1D1B"/>
<path d="M58 119.732H60.0019H62.0011V117.865H60.0019H58V119.732Z" fill="#1D1D1B"/>
<path d="M40.0019 168.268H38V170.138H40.0019H42.0011V168.268H40.0019Z" fill="#1D1D1B"/>
<path d="M38.0019 166.403H36V168.268H38.0019V166.403Z" fill="#1D1D1B"/>
<path d="M33.9992 164.538V162.666H32V164.538V166.403H33.9992H36.0011V164.538H33.9992Z" fill="#1D1D1B"/>
<path d="M31.9992 160.801H30V162.665H31.9992V160.801Z" fill="#1D1D1B"/>
<path d="M44.0003 162.666H45.9995H48.0014H50.0006H51.9998H54.0016H56.0035H58V160.801H60.0019V158.936H58H56.0035V160.801H54.0016H51.9998H50.0006H48.0014H45.9995H44.0003V158.936H42.0011H40.002V160.801H42.0011V162.666H44.0003Z" fill="#1D1D1B"/>
<path d="M39.9992 157.069H38V158.936H39.9992V157.069Z" fill="#1D1D1B"/>
<path d="M29.9999 157.069H27.998V158.936V160.801H29.9999V158.936V157.069Z" fill="#1D1D1B"/>
<path d="M27.9992 153.331H26V155.199V157.069H27.9992V155.199V153.331Z" fill="#1D1D1B"/>
<path d="M25.9992 149.599V147.732V145.87V144V142.132V140.27V138.398V136.533H24V138.398V140.27V142.132V144V145.87V147.732V149.599V151.469H25.9992V149.599Z" fill="#1D1D1B"/>
<path d="M38.0002 153.331H36.0011V151.469V149.599H33.9992V147.732V145.87V144V142.132V140.27V138.398H36.0011V136.533V134.666H38.0002V132.798V130.936H36.0011V132.798H33.9992V134.666V136.533H32V138.398V140.27V142.132V144V145.87V147.732V149.599V151.469H33.9992V153.331V155.199H36.0011V157.069H38.0002V155.199V153.331Z" fill="#1D1D1B"/>
<path d="M27.9992 132.798V130.936H26V132.798V134.666H27.9992V132.798Z" fill="#1D1D1B"/>
<path d="M39.9992 129.069H38V130.934H39.9992V129.069Z" fill="#1D1D1B"/>
<path d="M29.9999 129.069V127.204H27.998V129.069V130.936H29.9999V129.069Z" fill="#1D1D1B"/>
<path d="M44.0003 129.069V127.204H45.9995H48.0014H50.0006H51.9998H54.0016H56.0035V129.069H58H60.0019V127.204H58V125.334H56.0035H54.0016H51.9998H50.0006H48.0014H45.9995H44.0003H42.0011V127.204H40.002V129.069H42.0011H44.0003Z" fill="#1D1D1B"/>
<path d="M31.9992 125.334H30V127.204H31.9992V125.334Z" fill="#1D1D1B"/>
<path d="M33.9992 123.469H32V125.334H33.9992V123.469Z" fill="#1D1D1B"/>
<path d="M35.9999 121.602H33.998V123.469H35.9999V121.602Z" fill="#1D1D1B"/>
<path d="M38.0019 119.732H36V121.602H38.0019V119.732Z" fill="#1D1D1B"/>
<path d="M42.0011 119.732V117.865H40.0019H38V119.732H40.0019H42.0011Z" fill="#1D1D1B"/>
<path d="M45.9984 117.865H48.0002H49.9994H51.9986H54.0005H56.0023H57.9989V116H56.0023H54.0005H51.9986H49.9994H48.0002H45.9984H43.9992H42V117.865H43.9992H45.9984Z" fill="#1D1D1B"/>
<path d="M77.9964 130.936H75.9972V132.801H73.998V134.666V136.533H75.9972V134.666H77.9964H79.9983V132.801V130.936H77.9964Z" fill="white"/>
<path d="M75.9976 125.334H73.9984H71.9965H70V127.204H71.9965V129.069H73.9984V127.204H75.9976H77.9968V125.334H75.9976Z" fill="white"/>
<path d="M51.9958 158.936H49.9966H47.9974H45.9955V157.066H43.9963H41.9971V155.199H39.998V153.331H37.9961V155.199V157.066H39.998V158.936H41.9971H43.9963V160.801H45.9955H47.9974H49.9966H51.9958H53.9976H55.9995V158.936H53.9976H51.9958Z" fill="white"/>
<path d="M56 157.066V158.936H57.9965H59.9984V157.066H57.9965H56Z" fill="white"/>
<path d="M61.9992 155.199H60V157.063H61.9992V155.199Z" fill="white"/>
<path d="M37.9972 149.599H35.998V151.469V153.331H37.9972V151.469V149.599Z" fill="white"/>
<path d="M35.998 145.87V144V142.133H33.9961V144V145.87V147.732V149.599H35.998V147.732V145.87Z" fill="white"/>
<path d="M35.998 138.398H33.9961V140.268H35.998V138.398Z" fill="white"/>
<path d="M47.0023 142.199V140.4H45.4023V142.199V144H47.0023V142.199Z" fill="#1D1D1B"/>
<path d="M47.0023 149.399V147.6H45.4023V149.399V151.2H47.0023V149.399Z" fill="#1D1D1B"/>
<path d="M53.4019 145.799V144H47.002V145.799V147.6H53.4019V145.799Z" fill="#1D1D1B"/>
<path d="M48.8019 138.599V136.8H47.002V138.599V140.4H48.8019V138.599Z" fill="#1D1D1B"/>
<path d="M55.0023 142.199V140.4H53.4023V142.199V144H55.0023V142.199Z" fill="#1D1D1B"/>
<path d="M55.0023 149.399V147.6H53.4023V149.399V151.2H55.0023V149.399Z" fill="#1D1D1B"/>
<path d="M53.4016 138.599V136.8H51.6016V138.599V140.4H53.4016V138.599Z" fill="#1D1D1B"/>
<path d="M40.3704 29.5455V47H37.1829L29.5891 36.0142H29.4613V47H25.771V29.5455H29.0096L36.5437 40.5227H36.6971V29.5455H40.3704ZM43.4194 47V29.5455H54.9762V32.5881H47.1097V36.7472H54.2092V39.7898H47.1097V47H43.4194ZM56.7937 32.5881V29.5455H71.1289V32.5881H65.7852V47H62.1374V32.5881H56.7937ZM82.9734 47L77.979 29.5455H82.0103L84.8995 41.6733H85.0444L88.2319 29.5455H91.6836L94.8626 41.6989H95.016L97.9052 29.5455H101.936L96.9421 47H93.3455L90.0217 35.5881H89.8853L86.57 47H82.9734ZM108.403 47.2557C107.056 47.2557 105.897 46.983 104.926 46.4375C103.96 45.8864 103.216 45.108 102.693 44.1023C102.17 43.0909 101.909 41.8949 101.909 40.5142C101.909 39.1676 102.17 37.9858 102.693 36.9688C103.216 35.9517 103.951 35.1591 104.9 34.5909C105.855 34.0227 106.974 33.7386 108.258 33.7386C109.122 33.7386 109.926 33.8778 110.67 34.1562C111.42 34.429 112.074 34.8409 112.63 35.392C113.193 35.9432 113.63 36.6364 113.943 37.4716C114.255 38.3011 114.412 39.2727 114.412 40.3864V41.3835H103.358V39.1335H110.994C110.994 38.6108 110.88 38.1477 110.653 37.7443C110.426 37.3409 110.11 37.0256 109.707 36.7983C109.309 36.5653 108.846 36.4489 108.318 36.4489C107.767 36.4489 107.278 36.5767 106.852 36.8324C106.431 37.0824 106.102 37.4205 105.863 37.8466C105.625 38.267 105.502 38.7358 105.497 39.2528V41.392C105.497 42.0398 105.616 42.5994 105.855 43.071C106.099 43.5426 106.443 43.9062 106.886 44.1619C107.329 44.4176 107.855 44.5455 108.463 44.5455C108.866 44.5455 109.235 44.4886 109.571 44.375C109.906 44.2614 110.193 44.0909 110.431 43.8636C110.67 43.6364 110.852 43.358 110.977 43.0284L114.335 43.25C114.164 44.0568 113.815 44.7614 113.287 45.3636C112.764 45.9602 112.088 46.4261 111.258 46.7614C110.434 47.0909 109.483 47.2557 108.403 47.2557ZM116.849 47V29.5455H120.48V36.108H120.591C120.75 35.7557 120.98 35.3977 121.281 35.0341C121.588 34.6648 121.985 34.358 122.474 34.1136C122.968 33.8636 123.582 33.7386 124.315 33.7386C125.27 33.7386 126.15 33.9886 126.957 34.4886C127.764 34.983 128.409 35.7301 128.892 36.7301C129.375 37.7244 129.616 38.9716 129.616 40.4716C129.616 41.9318 129.38 43.1648 128.909 44.1705C128.443 45.1705 127.806 45.929 127 46.446C126.199 46.9574 125.301 47.2131 124.306 47.2131C123.602 47.2131 123.002 47.0966 122.508 46.8636C122.02 46.6307 121.619 46.3381 121.306 45.9858C120.994 45.6278 120.755 45.267 120.591 44.9034H120.429V47H116.849ZM120.403 40.4545C120.403 41.233 120.511 41.9119 120.727 42.4915C120.943 43.071 121.255 43.5227 121.664 43.8466C122.074 44.1648 122.571 44.3239 123.156 44.3239C123.747 44.3239 124.247 44.1619 124.656 43.8381C125.065 43.5085 125.375 43.054 125.585 42.4744C125.801 41.8892 125.909 41.2159 125.909 40.4545C125.909 39.6989 125.804 39.0341 125.593 38.4602C125.383 37.8864 125.074 37.4375 124.664 37.1136C124.255 36.7898 123.752 36.6278 123.156 36.6278C122.565 36.6278 122.065 36.7841 121.656 37.0966C121.252 37.4091 120.943 37.8523 120.727 38.4261C120.511 39 120.403 39.6761 120.403 40.4545ZM148.147 38.2727C148.147 40.1761 147.786 41.7955 147.064 43.1307C146.348 44.4659 145.371 45.4858 144.132 46.1903C142.9 46.8892 141.513 47.2386 139.973 47.2386C138.422 47.2386 137.03 46.8864 135.797 46.1818C134.564 45.4773 133.59 44.4574 132.874 43.1222C132.158 41.7869 131.8 40.1705 131.8 38.2727C131.8 36.3693 132.158 34.75 132.874 33.4148C133.59 32.0795 134.564 31.0625 135.797 30.3636C137.03 29.6591 138.422 29.3068 139.973 29.3068C141.513 29.3068 142.9 29.6591 144.132 30.3636C145.371 31.0625 146.348 32.0795 147.064 33.4148C147.786 34.75 148.147 36.3693 148.147 38.2727ZM144.405 38.2727C144.405 37.0398 144.221 36 143.851 35.1534C143.488 34.3068 142.973 33.6648 142.309 33.2273C141.644 32.7898 140.865 32.571 139.973 32.571C139.081 32.571 138.303 32.7898 137.638 33.2273C136.973 33.6648 136.456 34.3068 136.087 35.1534C135.723 36 135.542 37.0398 135.542 38.2727C135.542 39.5057 135.723 40.5455 136.087 41.392C136.456 42.2386 136.973 42.8807 137.638 43.3182C138.303 43.7557 139.081 43.9744 139.973 43.9744C140.865 43.9744 141.644 43.7557 142.309 43.3182C142.973 42.8807 143.488 42.2386 143.851 41.392C144.221 40.5455 144.405 39.5057 144.405 38.2727ZM154.443 39.4318V47H150.812V33.9091H154.272V36.2188H154.426C154.716 35.4574 155.201 34.8551 155.883 34.4119C156.565 33.9631 157.392 33.7386 158.363 33.7386C159.272 33.7386 160.065 33.9375 160.741 34.3352C161.417 34.733 161.943 35.3011 162.318 36.0398C162.693 36.7727 162.88 37.6477 162.88 38.6648V47H159.25V39.3125C159.255 38.5114 159.051 37.8864 158.636 37.4375C158.221 36.983 157.65 36.7557 156.923 36.7557C156.434 36.7557 156.002 36.8608 155.627 37.071C155.258 37.2812 154.968 37.5881 154.758 37.9915C154.554 38.3892 154.449 38.8693 154.443 39.4318Z" fill="white"/>
<path d="M300.52 221.155C300.473 220.135 300.432 219.263 300.383 218.193L294.681 218.193L294.681 215.43L288.849 215.43L288.849 218.193L286.003 218.193L286.003 215.272L277.403 215.272L277.403 206.617L280.164 206.617L280.164 200.804L274.473 200.804L274.473 197.969L280.113 197.969C280.171 196.934 280.219 196.059 280.269 195.18L286.006 195.18L286.006 197.941L288.744 197.941L288.744 192.124L280.295 192.124L280.295 189.212L283.137 189.212L283.137 183.468L288.896 183.468L288.896 177.74C289.843 177.723 290.791 177.707 291.738 177.691L291.738 172.007C292.738 171.96 293.617 171.92 294.573 171.875L294.573 169.113L288.846 169.113L288.846 163.277L286.001 163.277C285.986 166.155 285.97 169.033 285.955 171.91L283.06 171.91L283.06 174.8C282.112 174.8 281.164 174.799 280.217 174.798L280.217 168.979L283.108 168.979L283.108 163.275C284.057 163.261 285.006 163.246 285.955 163.232L285.955 160.382C285.006 160.368 284.057 160.353 283.108 160.339C283.108 158.425 283.108 156.511 283.108 154.597L285.866 154.597L285.866 151.66L283.108 151.66L283.108 142.948L288.895 142.948L288.895 134.349L297.437 134.349L297.437 131.412L288.895 131.412L288.895 125.598L286.003 125.598L286.003 122.784L288.943 122.784L288.943 119.815L291.697 119.815C291.747 118.83 291.79 117.951 291.842 116.91L294.746 116.91L294.746 111.12L297.447 111.12L297.447 105.376L294.68 105.376L294.68 96.8297L288.957 96.8297L288.957 102.43L291.741 102.43L291.741 105.376L285.999 105.376L285.999 102.486L283.108 102.486L283.108 96.6795L277.404 96.6795L277.404 90.9618L280.167 90.9618L280.167 93.7245L285.955 93.7245L285.955 88.1261L288.795 88.1261L288.795 90.8301L291.689 90.8301C291.737 89.9463 291.785 89.0686 291.836 88.1209L294.591 88.1209L294.591 90.9083L297.526 90.9083C297.526 90.0224 297.526 89.1344 297.526 88.086L303.246 88.086L303.246 85.1947L300.515 85.1947L300.515 82.2325L297.58 82.2325L297.58 79.4688L291.82 79.4688L291.82 85.026L285.999 85.026L285.999 82.2829L288.895 82.2829L288.895 73.6008C289.864 73.57 290.834 73.5391 291.804 73.5072C291.798 72.575 291.793 71.6418 291.787 70.7096L294.68 70.7096L294.68 67.8194L297.628 67.8194L297.628 70.6015L300.48 70.6015L300.48 61.935L303.255 61.935L303.255 59.0859L291.691 59.0859L291.691 56.3099L285.943 56.3099L285.943 61.9854L280.212 61.9854L280.212 56.2883L283.059 56.2883L283.059 53.3548L280.168 53.3548L280.168 50.4635C279.218 50.4481 278.269 50.4337 277.319 50.4183C277.319 49.4686 277.321 48.5189 277.322 47.5702L280.169 47.5702C280.183 48.5199 280.198 49.4686 280.212 50.4183L283.062 50.4183L283.062 47.5692C282.112 47.5548 281.163 47.5404 280.213 47.526L280.213 44.6327L277.322 44.6327L277.322 41.7064L280.215 41.7064L280.215 38.8923L283.107 38.8923L283.107 33.1067C284.057 33.0913 285.006 33.0758 285.956 33.0604L285.956 30.1691L291.74 30.1691L291.74 27.353L297.58 27.353L297.58 24.435L300.344 24.435L300.344 18.6741L291.843 18.6741L291.843 15.7056L288.896 15.7056L288.896 -1.60696C289.866 -1.63783 290.835 -1.6687 291.805 -1.7006L291.805 -4.5435L288.896 -4.5435L288.896 -7.4471L291.798 -7.4471L291.798 -10.2211C290.868 -10.2725 289.932 -10.326 288.838 -10.3888L288.838 -13.2698L286.061 -13.2698L286.061 -16.0283C287.016 -16.0756 287.895 -16.1188 288.941 -16.1703L288.941 -24.8204L294.694 -24.8204L294.694 -27.6901L297.526 -27.6901C297.526 -28.6171 297.526 -29.5462 297.526 -30.6348L294.748 -30.6348L294.748 -33.4777C295.667 -33.4798 296.586 -33.4798 297.611 -33.4798L297.611 -36.3752L303.219 -36.3752L303.219 -39.2829L300.511 -39.2829C300.464 -40.2676 300.421 -41.1494 300.37 -42.1896L297.63 -42.1896L297.63 -47.8394C298.58 -47.8919 299.458 -47.9392 300.335 -47.9875L300.335 -50.8901L297.487 -50.8901L297.487 -53.5921L288.846 -53.5921L288.846 -50.8253L286.002 -50.8253L286.002 -53.7711L283.168 -53.7711L283.168 -56.6233L291.736 -56.6233L291.736 -62.3471C290.809 -62.3471 289.879 -62.3471 288.792 -62.3471L288.792 -59.567L285.94 -59.567L285.94 -62.449L283.032 -62.449L283.032 -71.0847L277.322 -71.0847L277.322 -76.8096L286.041 -76.8096L286.041 -73.906L288.798 -73.906C288.851 -72.9244 288.898 -72.0437 288.946 -71.1619L291.789 -71.1619L291.789 -76.8148L294.621 -76.8148L294.621 -79.6721L297.427 -79.6721L297.427 -82.6446L291.787 -82.6446L291.787 -85.5369L288.894 -85.5369C288.877 -86.4846 288.86 -87.4332 288.843 -88.3809C287.919 -88.3809 286.991 -88.3809 285.91 -88.3809L285.91 -96L294.68 -96L294.68 -94.2128L297.53 -94.2128L297.53 -96L397.507 -96L397.507 224L306.233 224L306.233 221.155L300.52 221.155ZM291.828 -91.3431L288.889 -91.3431C288.889 -90.2689 288.889 -89.346 288.889 -88.4241L294.584 -88.4241L294.584 -85.6182L300.422 -85.6182L300.422 -88.3829L297.53 -88.3829L297.53 -91.2752L294.637 -91.2752L294.637 -94.1654L291.829 -94.1654L291.829 -91.3431L291.828 -91.3431ZM297.575 -94.1654L297.575 -91.3194L300.425 -91.3194L300.425 -94.1654L297.575 -94.1654ZM303.38 -91.2731L300.468 -91.2731L300.468 -88.4282C301.438 -88.4446 302.408 -88.4611 303.38 -88.4786L303.38 -91.2731ZM306.108 -82.7022L306.108 -88.4374L303.427 -88.4374C303.429 -86.5535 303.429 -84.6675 303.429 -82.7022L306.108 -82.7022ZM309.013 -76.8539L309.013 -79.6227L306.252 -79.6227C306.252 -78.6977 306.252 -77.7758 306.252 -76.8539L309.013 -76.8539ZM317.715 -74.0501L317.715 -76.7561L314.98 -76.7561L314.98 -74.0501L317.715 -74.0501ZM306.205 -71.0683L306.205 -76.8076C305.318 -76.8076 304.428 -76.8076 303.357 -76.8076C303.357 -74.8537 303.357 -72.9604 303.357 -71.0683L306.205 -71.0683ZM317.707 -65.3794L317.707 -68.07L314.988 -68.07L314.988 -65.3794L317.707 -65.3794ZM300.442 -56.6932L300.442 -68.1348L303.312 -68.1348L303.312 -71.023L297.596 -71.023L297.596 -68.1698L286.056 -68.1698L286.056 -65.3279L291.783 -65.3279C291.783 -64.2445 291.783 -63.3164 291.783 -62.3904L294.618 -62.3904L294.618 -59.5382L297.472 -59.5382L297.472 -56.6922L300.441 -56.6922L300.442 -56.6932ZM311.913 -33.5107L311.913 -36.2445L309.207 -36.2445L309.207 -33.5107L311.913 -33.5107ZM317.688 -27.7374L317.688 -30.4918L315.006 -30.4918L315.006 -27.7374L317.688 -27.7374ZM303.226 -27.6787L303.226 -30.4476L300.464 -30.4476C300.464 -29.5226 300.464 -28.6007 300.464 -27.6787L303.226 -27.6787ZM303.252 -21.9816L303.252 -24.6887L300.418 -24.6887L300.418 -27.6324C299.469 -27.6355 298.519 -27.6386 297.571 -27.6417L297.571 -21.9816L303.253 -21.9816L303.252 -21.9816ZM311.927 -16.197L311.927 -18.9031L309.192 -18.9031L309.192 -16.197L311.927 -16.197ZM303.209 -13.3037L303.209 -16.0581L300.568 -16.0581L300.568 -13.3037L303.209 -13.3037ZM291.853 -1.65841C291.855 -0.736497 291.855 0.188497 291.855 1.18758L294.533 1.18758L294.533 -1.65841L291.853 -1.65841ZM297.532 -13.0804L291.837 -13.0804C291.837 -12.1091 291.837 -11.1872 291.839 -10.2643C293.737 -10.2828 295.635 -10.3013 297.533 -10.3199L297.533 -13.0794L297.532 -13.0804ZM303.219 -7.36479L303.219 -10.2756L297.578 -10.2756L297.578 1.15466L300.427 1.15466L300.427 -7.36479L303.219 -7.36479ZM309.015 -1.65224L309.015 -4.41385L306.262 -4.41386L306.262 -1.65224C307.143 -1.65224 308.025 -1.65224 309.015 -1.65224ZM314.815 1.20919L314.815 -1.54008L312.149 -1.54008L312.149 1.20919L314.815 1.20919ZM306.207 1.238C306.21 0.289337 306.213 -0.658299 306.216 -1.60696L303.451 -1.60696L303.451 1.238L306.207 1.238ZM309.022 4.04489L309.022 1.28327L306.253 1.28327L306.253 4.04489L309.022 4.04489ZM317.699 9.82124L317.699 7.14811L314.943 7.14811L314.943 9.82124L317.699 9.82124ZM309.107 9.92722L309.107 7.1656L306.338 7.1656L306.338 9.92722L309.107 9.92722ZM311.917 12.7259L311.917 9.97352L309.153 9.97352L309.153 12.7259L311.917 12.7259ZM300.415 12.7351L300.415 4.28977L294.773 4.28977L294.773 12.7351L300.415 12.7351ZM311.944 18.5187L311.944 15.8054L309.245 15.8054L309.245 18.5187L311.944 18.5187ZM285.999 35.8704L291.744 35.8704L291.744 33.1077L285.999 33.1077L285.999 35.8704ZM303.444 27.4178L303.444 30.1156L306.158 30.1156L306.158 27.4178L303.444 27.4178ZM314.791 30.164L314.791 27.4096L312.117 27.4096L312.117 30.164L314.791 30.164ZM291.787 30.2144L291.787 33.0604L294.621 33.0604L294.621 35.892L297.428 35.892L297.428 30.2144L291.787 30.2144ZM303.282 38.8008L303.282 33.1859L300.53 33.1859L300.53 38.8008L303.282 38.8008ZM286 47.5702L286 50.4162C286.97 50.4008 287.939 50.3853 288.911 50.3689C288.892 49.4357 288.874 48.5024 288.854 47.5682C287.903 47.5682 286.951 47.5702 286 47.5712L286 47.5702ZM283.108 41.8772L283.108 47.526L285.953 47.526L285.953 41.8772L283.108 41.8772ZM297.438 41.7445L297.438 38.9757L294.676 38.9757C294.676 39.9007 294.676 40.8226 294.676 41.7445L297.438 41.7445ZM294.631 44.7037L294.631 41.7898C293.748 41.7898 292.861 41.7898 291.819 41.7898L291.819 38.9685L288.9 38.9685L288.9 47.5219L291.702 47.5219L291.702 44.7026L294.632 44.7026L294.631 44.7037ZM303.314 50.4131C303.314 48.5662 303.314 46.7193 303.314 44.7654L297.647 44.7654L297.647 47.5054L300.376 47.5054L300.376 50.4131L303.313 50.4131L303.314 50.4131ZM306.128 53.22L306.128 50.4584L303.359 50.4584L303.359 53.22L306.128 53.22ZM297.483 53.2499L297.483 50.409L288.959 50.409C288.961 51.334 288.961 52.2611 288.961 53.2499L297.483 53.2499ZM285.956 50.4646L283.107 50.4646L283.107 53.3137L285.956 53.3137L285.956 50.4646ZM314.789 61.9288L314.789 59.231L312.09 59.231L312.09 61.9288L314.789 61.9288ZM309.026 64.7892L309.026 62.0996L306.307 62.0996L306.307 64.7892L309.026 64.7892ZM309.013 70.6715L309.013 67.9027L306.252 67.9027L306.252 70.6715L309.013 70.6715ZM291.852 73.5504C291.854 74.4723 291.854 75.3973 291.854 76.3964L294.532 76.3964L294.532 73.5504L291.852 73.5504ZM297.629 76.4005L300.328 76.4005L300.328 73.6873L297.629 73.6873L297.629 76.4005ZM306.16 79.2836L306.16 76.5127L309.041 76.5127L309.041 73.6605L306.205 73.6605L306.205 70.7168C305.317 70.7168 304.427 70.7168 303.442 70.7168L303.442 79.2836L306.16 79.2836ZM314.829 82.1604L314.829 79.4955L312.079 79.4955L312.079 82.1604L314.829 82.1604ZM314.807 90.8178L314.807 88.1775L312.052 88.1775L312.052 90.8178L314.807 90.8178ZM309.011 90.8651L309.011 88.1477L306.321 88.1477L306.321 90.8651L309.011 90.8651ZM300.341 93.7172L300.341 90.9567C299.416 90.9567 298.494 90.9567 297.571 90.9567L297.571 93.7172L300.341 93.7172ZM309.07 96.5962L309.07 93.9313L306.32 93.9313L306.32 96.5962L309.07 96.5962ZM300.36 102.412L300.36 96.7917L297.661 96.7917L297.661 102.412L300.36 102.412ZM309.008 105.375L309.008 102.613L303.368 102.613L303.368 105.375C305.209 105.375 307.05 105.375 309.008 105.375ZM311.99 111.057L311.99 108.416L309.235 108.416L309.235 111.057L311.99 111.057ZM303.322 111.08L303.322 105.42L300.557 105.42L300.557 111.08L303.322 111.08ZM314.839 116.895L314.839 114.197L312.125 114.197L312.125 116.895L314.839 116.895ZM300.334 119.74L300.334 117.042L297.635 117.042L297.635 119.74L300.334 119.74ZM309.017 122.634L309.017 119.961L306.262 119.961L306.262 122.634L309.017 122.634ZM309.027 128.485L309.027 125.736L306.361 125.736L306.361 128.485L309.027 128.485ZM320.598 134.21L320.598 131.513L317.884 131.513L317.884 134.21L320.598 134.21ZM291.783 146.004C291.783 146.929 291.783 147.851 291.783 148.773L294.544 148.773L294.544 146.004L291.783 146.004ZM294.76 137.341L294.76 142.927L297.476 142.927L297.476 137.341L294.76 137.341ZM311.912 142.98L311.912 140.189C311.029 140.142 310.151 140.094 309.168 140.04L309.168 137.337L306.262 137.337L306.262 142.979C308.11 142.979 309.957 142.98 311.912 142.98ZM306.216 145.809L306.216 143.025L303.307 143.025L303.307 145.813C304.223 145.809 305.144 145.809 306.216 145.809ZM303.32 148.774C303.303 147.802 303.285 146.83 303.269 145.859L300.543 145.859L300.543 148.774L303.32 148.774ZM306.129 151.572L306.129 148.82L303.367 148.82C303.367 149.701 303.367 150.584 303.367 151.572L306.129 151.572ZM300.372 154.489L300.372 151.8L297.654 151.8L297.654 154.489L300.372 154.489ZM294.581 157.38L294.581 151.754L291.736 151.754L291.736 148.817C290.852 148.817 289.964 148.817 288.838 148.817L288.838 157.381C290.727 157.379 292.616 157.379 294.581 157.379L294.581 157.38ZM286.001 157.429L286.001 160.34L288.848 160.34C288.832 159.371 288.815 158.4 288.798 157.429L286.002 157.429L286.001 157.429ZM309.068 163.177L309.068 160.442C310.111 160.388 310.991 160.343 311.943 160.294L311.943 157.584L306.332 157.584L306.332 163.177L309.068 163.177ZM297.437 160.387L288.893 160.387L288.893 163.233L297.437 163.233L297.437 160.387ZM306.143 171.867L306.143 166.224L300.564 166.224L300.564 171.867L306.143 171.867ZM291.784 183.482L294.636 183.482L294.636 177.743C293.685 177.741 292.735 177.739 291.784 177.736L291.784 183.481L291.784 183.482ZM294.68 174.936L294.68 177.696L297.53 177.696L297.53 174.936L294.68 174.936ZM314.827 177.616L314.827 174.899L312.136 174.899L312.136 177.616L314.827 177.616ZM303.226 177.699L303.226 174.93L300.464 174.93C300.464 175.855 300.464 176.777 300.464 177.699L303.226 177.699ZM297.575 177.743L297.575 183.525L294.683 183.525L294.683 186.359L297.498 186.359L297.498 192.055L300.418 192.055L300.418 177.745C299.47 177.745 298.522 177.744 297.575 177.743ZM306.132 189.173L306.132 186.483L303.413 186.483L303.413 189.173L306.132 189.173ZM311.934 192.08L311.934 189.362L309.243 189.362L309.243 192.08L311.934 192.08ZM306.114 194.997L306.114 192.242L303.431 192.242L303.431 194.997L306.114 194.997ZM294.639 195.057L294.639 192.296L291.869 192.296L291.869 195.057L294.639 195.057ZM300.34 197.858L300.34 195.102L294.685 195.102C294.685 195.986 294.685 196.869 294.685 197.858L300.34 197.858ZM283.197 197.986L283.197 200.755L285.959 200.755C285.959 199.83 285.959 198.908 285.959 197.986L283.197 197.986ZM320.671 200.728L320.671 198.088L317.916 198.088L317.916 200.728L320.671 200.728ZM309.027 200.802L309.027 198.053L306.361 198.053L306.361 200.802L309.027 200.802ZM294.583 203.675L294.583 200.977L291.869 200.977L291.869 203.675L294.583 203.675ZM283.138 203.869L283.138 206.663C282.06 206.663 281.133 206.663 280.208 206.663L280.208 212.309L283.034 212.309L283.034 209.51L288.844 209.51L288.844 203.869L283.138 203.869ZM288.889 212.316L291.659 212.316L291.659 209.555C290.733 209.555 289.811 209.555 288.889 209.555L288.889 212.316ZM306.151 209.448L306.151 206.771L300.413 206.771L300.413 209.452C302.296 209.448 304.184 209.448 306.151 209.448ZM300.426 212.412C300.408 211.441 300.391 210.469 300.374 209.497L297.649 209.497L297.649 212.412L300.426 212.412ZM303.235 215.211L303.235 212.459L300.472 212.459C300.472 213.339 300.472 214.222 300.472 215.211L303.235 215.211ZM311.925 220.999L311.925 218.244L309.251 218.244L309.251 220.999L311.925 220.999Z" fill="#009188"/>
<path d="M277.407 -10.1855L283.133 -10.1855L283.133 -7.48458C284.113 -7.43211 284.991 -7.38478 286.026 -7.32819L286.026 -4.49763L288.848 -4.49763L288.848 -1.64855L285.906 -1.64855L285.906 4.21731L283.045 4.21731L283.045 6.92851L277.381 6.92851L277.381 4.12265L280.161 4.12265L280.161 1.29107C279.238 1.29107 278.313 1.29107 277.406 1.29107L277.406 -10.1865L277.407 -10.1855ZM282.974 -4.41223L280.208 -4.41223C280.208 -2.51902 280.208 -0.635067 280.208 1.24785L282.974 1.24785L282.974 -4.41223Z" fill="#009188"/>
<path d="M288.897 15.7525L288.85 15.7525L288.85 15.708L288.897 15.7525Z" fill="#009188"/>
<path d="M274.328 18.5332L274.374 18.5332C274.374 18.5508 274.374 18.5673 274.374 18.5849C274.376 18.587 274.328 18.5332 274.328 18.5332Z" fill="#009188"/>
<path d="M288.849 15.752L288.849 21.3946L286.03 21.3946L286.03 18.6011L283.108 18.6011L283.108 15.8446L277.203 15.8446L277.203 18.5342L274.371 18.5342C274.369 16.6493 274.369 14.7653 274.369 12.7744L277.34 12.7744L277.34 10.0714L280.25 10.0714L280.25 12.7322L283.159 12.7322L283.159 10.0313L286.011 10.0313L286.011 15.752L288.847 15.752L288.849 15.752Z" fill="#009188"/>
<path d="M277.284 30.1802C277.297 30.1936 277.321 30.2154 277.321 30.2154C277.306 30.2154 277.29 30.2154 277.273 30.2154L277.273 30.1709L277.321 30.1709L277.321 30.2154L277.284 30.1802Z" fill="#009188"/>
<path d="M285.893 24.3704L285.893 27.2226L283.063 27.2226L283.063 33.0638L280.248 33.0638L280.248 30.1715L277.322 30.1715L277.322 27.2421L280.257 27.2421L280.257 18.6455L283.064 18.6455L283.064 24.3714L285.894 24.3714L285.893 24.3704Z" fill="#FDCD00"/>
<path d="M283.062 33.108L283.062 33.0625L283.108 33.0625L283.062 33.108Z" fill="#009188"/>
<path d="M283.062 18.6441L283.062 18.5996L283.11 18.5996L283.11 18.6441L283.062 18.6441Z" fill="#009188"/>
<path d="M285.957 82.2858L285.957 82.2383L286.002 82.2383L285.957 82.2858Z" fill="#009188"/>
<path d="M285.956 82.2382L283.148 82.2382L283.148 85.1058L280.167 85.1058L280.167 88.0207L277.322 88.0207L277.322 82.2876L280.237 82.2876L280.237 79.3037L283.11 79.3037L283.11 76.502L285.955 76.502L285.955 82.2371L285.956 82.2382Z" fill="#009188"/>
<path d="M277.323 82.2432L277.323 82.2887L277.277 82.2887L277.323 82.2432Z" fill="#009188"/>
<path d="M283.11 76.5035L283.064 76.5035L283.11 76.458L283.11 76.5035Z" fill="#009188"/>
<path d="M277.279 154.55L277.325 154.55L277.325 154.595L277.279 154.55Z" fill="#009188"/>
<path d="M283.108 151.707L283.061 151.707L283.061 151.662L283.108 151.707Z" fill="#009188"/>
<path d="M274.43 145.927C274.415 145.927 274.399 145.927 274.385 145.927L274.43 145.882L274.43 145.927Z" fill="#009188"/>
<path d="M283.062 154.599L283.062 154.555C283.078 154.555 283.095 154.555 283.11 154.555L283.062 154.599Z" fill="#009188"/>
<path d="M277.268 148.841L280.256 148.841L280.256 151.706L283.061 151.706L283.061 154.555C281.148 154.553 279.236 154.552 277.323 154.55L277.323 151.621L274.428 151.621L274.428 145.927C275.374 145.927 276.321 145.927 277.267 145.926L277.267 148.841L277.268 148.841Z" fill="#FDCD00"/>
<path d="M277.315 145.925C277.3 145.925 277.284 145.925 277.27 145.925L277.27 145.88L277.315 145.925Z" fill="#009188"/>
<path d="M285.956 171.91L286.001 171.91L286.001 171.956L285.955 171.956C285.955 171.94 285.955 171.926 285.955 171.91L285.956 171.91Z" fill="#009188"/>
<path d="M285.884 114.123L285.884 116.872L277.412 116.872L277.412 114.042L280.144 114.042L280.144 111.291L283.154 111.291L283.154 114.123L285.884 114.123Z" fill="#F2A317"/>
<path d="M280.271 125.747L283.14 125.747L283.14 128.632L285.888 128.632L285.888 131.467C284.007 131.469 282.127 131.469 280.273 131.469L280.273 125.747L280.271 125.747Z" fill="#009188"/>
<path d="M285.889 131.466C285.906 131.466 285.923 131.466 285.94 131.466C285.942 131.464 285.889 131.511 285.889 131.511L285.889 131.467L285.889 131.466Z" fill="#009188"/>
<path d="M288.85 177.741L288.85 177.696L288.897 177.696L288.85 177.741Z" fill="#009188"/>
<path d="M286 171.955L288.849 171.955L288.849 177.696L283.105 177.696L283.105 174.847L286 174.847L286 171.955Z" fill="#009188"/>
<path d="M283.105 174.847L283.061 174.847L283.061 174.8C283.075 174.8 283.091 174.8 283.105 174.8L283.105 174.847Z" fill="#009188"/>
<path d="M291.79 67.7754L291.79 67.8198L291.742 67.8198L291.742 67.7754L291.79 67.7754Z" fill="#009188"/>
<path d="M294.637 67.823L294.637 67.7754L294.681 67.7754L294.637 67.823Z" fill="#009188"/>
<path d="M288.957 64.8283L288.957 62.1182L294.637 62.1182L294.637 67.7752L291.79 67.7752L291.79 64.8283L288.957 64.8283Z" fill="#009188"/>
<path d="M286.092 67.8193L291.743 67.8193L291.743 70.6684L288.849 70.6684L288.849 73.5617L286.092 73.5617L286.092 67.8193Z" fill="#009188"/>
<path d="M291.744 70.7125L291.744 70.667L291.79 70.667L291.744 70.7125Z" fill="#009188"/>
<path d="M288.85 73.605L288.85 73.5605L288.897 73.5605L288.85 73.605Z" fill="#009188"/>
<path d="M259.961 183.398L259.961 180.638L262.898 180.638L262.898 177.795L265.628 177.795L265.628 183.398L259.961 183.398Z" fill="#FDCD00"/>
<path d="M283.108 160.384L283.061 160.384L283.061 160.34L283.108 160.384Z" fill="#009188"/>
<path d="M277.279 163.228L277.325 163.228L277.325 163.273L277.279 163.228Z" fill="#009188"/>
<path d="M283.062 163.233C283.078 163.233 283.095 163.233 283.11 163.233L283.11 163.277C283.095 163.277 283.078 163.277 283.062 163.277L283.062 163.232L283.062 163.233Z" fill="#009188"/>
<path d="M277.324 160.384L283.062 160.384L283.062 163.233C281.149 163.231 279.237 163.23 277.324 163.228L277.324 160.383L277.324 160.384Z" fill="#009188"/>
<path d="M291.784 108.321L291.738 108.321L291.738 108.275L291.784 108.321Z" fill="#009188"/>
<path d="M288.98 113.973L288.98 108.32L291.738 108.32L291.738 113.973L288.98 113.973Z" fill="#009188"/>
<path d="M283.064 76.5035L283.064 76.458L283.11 76.458L283.064 76.5035Z" fill="#009188"/>
<path d="M280.295 70.8105L283.065 70.8105L283.065 76.4583C282.142 76.4583 281.219 76.4583 280.295 76.4583L280.295 70.8105Z" fill="#F2A317"/>
<path d="M274.43 119.893L274.385 119.893L274.43 119.848L274.43 119.893Z" fill="#009188"/>
<path d="M280.085 122.65L274.43 122.65L274.43 119.894L280.085 119.894L280.085 122.65Z" fill="#009188"/>
<path d="M277.321 62.0347L277.273 62.0347L277.273 61.9902L277.321 61.9902C277.321 62.0047 277.321 62.0202 277.321 62.0347Z" fill="#009188"/>
<path d="M277.279 67.7715L277.325 67.7715C277.325 67.787 277.325 67.8025 277.325 67.817L277.279 67.7715Z" fill="#009188"/>
<path d="M280.169 67.7714L277.325 67.7714C277.324 65.8596 277.323 63.9469 277.322 62.0352L280.169 62.0352L280.169 67.7714Z" fill="#009188"/>
<path d="M280.212 62.0349L280.168 62.0349L280.168 61.9873L280.212 62.0349Z" fill="#009188"/>
<path d="M280.168 38.8931L280.168 38.8486L280.216 38.8486L280.168 38.8931Z" fill="#009188"/>
<path d="M280.168 38.8491L274.428 38.8491L274.428 36L280.168 36L280.168 38.8491Z" fill="#009188"/>
<path d="M274.484 134.2L274.484 128.614L277.186 128.614L277.186 134.2L274.484 134.2Z" fill="#009188"/>
<path d="M274.428 56.2051L274.428 50.4668L277.274 50.4668L277.274 56.2051L274.428 56.2051Z" fill="#009188"/>
<path d="M277.273 50.4665L277.273 50.4189C277.288 50.4189 277.303 50.4189 277.318 50.4189C277.318 50.4345 277.318 50.45 277.318 50.4655L277.273 50.4655L277.273 50.4665Z" fill="#009188"/>
<path d="M268.598 35.9521C268.613 35.9521 268.629 35.9521 268.643 35.9521L268.643 35.9976L268.598 35.9521Z" fill="#009188"/>
<path d="M268.643 35.9512L268.643 33.1094L274.38 33.1094L274.38 35.9554C272.468 35.9533 270.555 35.9523 268.643 35.9502L268.643 35.9512Z" fill="#009188"/>
<path d="M274.381 33.1101L274.381 33.0625L274.425 33.1101L274.381 33.1101Z" fill="#009188"/>
<path d="M274.39 35.9912L274.427 35.957L274.427 36.0015L274.379 36.0015L274.379 35.957C274.394 35.957 274.411 35.957 274.427 35.957C274.427 35.957 274.404 35.9777 274.39 35.9912Z" fill="#009188"/>
<path d="M268.715 140.027L268.715 134.387L271.382 134.387L271.382 140.027L268.715 140.027Z" fill="#009188"/>
<path d="M259.961 47.4256L259.961 44.7812L265.608 44.7813L265.608 47.4256L259.961 47.4256Z" fill="#F2A317"/>
<path d="M257.154 96.6203L257.154 91.0117L259.847 91.0117L259.847 96.6203L257.154 96.6203Z" fill="#FDCD00"/>
<path d="M294.681 105.425L294.637 105.425L294.637 105.377L294.681 105.425Z" fill="#009188"/>
<path d="M291.784 108.321L291.738 108.275L291.784 108.275C291.784 108.291 291.784 108.305 291.784 108.321Z" fill="#009188"/>
<path d="M294.637 105.424L294.637 108.275L291.783 108.275C291.784 107.324 291.786 106.375 291.787 105.424L294.637 105.424Z" fill="#009188"/>
<path d="M291.789 105.377C291.789 105.392 291.789 105.409 291.789 105.425L291.744 105.425L291.789 105.377Z" fill="#009188"/>
<path d="M286.005 134.302C286.005 134.317 286.005 134.332 286.006 134.347L285.961 134.302L286.005 134.302Z" fill="#009188"/>
<path d="M288.848 131.458L288.848 134.306C287.9 134.304 286.952 134.303 286.004 134.301C285.983 133.371 285.96 132.44 285.939 131.508C286.91 131.491 287.88 131.474 288.848 131.458Z" fill="#009188"/>
<path d="M288.85 134.35L288.85 134.306C288.865 134.306 288.882 134.306 288.897 134.306L288.85 134.35Z" fill="#009188"/>
<path d="M288.897 131.458C288.882 131.458 288.865 131.458 288.85 131.458L288.85 131.412L288.897 131.457L288.897 131.458Z" fill="#009188"/>
<path d="M285.939 131.466C285.939 131.48 285.939 131.494 285.939 131.508C285.923 131.508 285.906 131.508 285.889 131.508C285.887 131.51 285.94 131.463 285.938 131.465L285.939 131.466Z" fill="#009188"/>
<path d="M285.961 134.302L286.006 134.347L285.961 134.347L285.961 134.302Z" fill="#009188"/>
<path d="M283.197 137.116L283.197 134.348L285.959 134.348C285.959 135.27 285.959 136.191 285.959 137.116L283.197 137.116Z" fill="#009188"/>
<path d="M285.959 122.787L285.959 122.741L286.005 122.741L285.959 122.787Z" fill="#009188"/>
<path d="M283.189 119.979L285.959 119.979L285.959 122.74C285.037 122.74 284.115 122.74 283.189 122.74L283.189 119.979Z" fill="#009188"/>
<path d="M286.002 105.425L285.957 105.425L285.957 105.377L286.002 105.425Z" fill="#009188"/>
<path d="M283.108 105.424L283.061 105.424L283.108 105.38L283.108 105.424Z" fill="#009188"/>
<path d="M285.956 108.184L283.109 108.184L283.109 105.424L285.956 105.424L285.956 108.184Z" fill="#009188"/>
<path d="M283.062 102.531L283.062 105.38C282.112 105.38 281.163 105.378 280.213 105.377L280.213 102.534C281.163 102.534 282.112 102.532 283.062 102.531Z" fill="#009188"/>
<path d="M280.212 105.377L280.212 105.425L280.168 105.425L280.168 105.377C280.182 105.377 280.198 105.377 280.212 105.377Z" fill="#009188"/>
<path d="M283.062 105.424L283.062 105.38C283.078 105.38 283.094 105.38 283.11 105.38L283.062 105.424Z" fill="#009188"/>
<path d="M283.108 102.531C283.093 102.531 283.077 102.531 283.061 102.531L283.061 102.486L283.108 102.531Z" fill="#009188"/>
<path d="M282.975 90.9164L280.213 90.9164L280.213 88.0684L282.975 88.0684L282.975 90.9164Z" fill="#009188"/>
<path d="M280.212 88.069L280.168 88.069L280.168 88.0215L280.212 88.0215L280.212 88.069Z" fill="#009188"/>
<path d="M280.168 90.917L280.212 90.917L280.212 90.9645L280.168 90.917Z" fill="#009188"/>
<path d="M280.087 186.284L277.324 186.284L277.324 183.531L280.087 183.531L280.087 186.284Z" fill="#009188"/>
<path d="M277.323 183.532L277.277 183.532L277.323 183.486L277.323 183.532Z" fill="#009188"/>
<path d="M277.41 177.614L277.41 174.845L280.172 174.845C280.172 175.767 280.172 176.689 280.172 177.614L277.41 177.614Z" fill="#009188"/>
<path d="M280.172 174.844L280.172 174.799C280.172 174.799 280.198 174.825 280.211 174.837C280.199 174.825 280.173 174.799 280.173 174.799C280.188 174.799 280.204 174.799 280.218 174.799L280.218 174.844L280.173 174.844L280.172 174.844Z" fill="#009188"/>
<path d="M277.315 145.925L277.27 145.88L277.315 145.88L277.315 145.925Z" fill="#009188"/>
<path d="M280.076 143.111L280.076 145.88L277.314 145.88C277.314 144.958 277.314 144.036 277.314 143.111L280.076 143.111Z" fill="#009188"/>
<path d="M280.078 139.988L277.379 139.988L277.379 137.29L280.078 137.29L280.078 139.988Z" fill="#009188"/>
<path d="M277.321 105.424L277.273 105.424L277.273 105.38C277.289 105.38 277.306 105.38 277.321 105.38L277.321 105.424Z" fill="#009188"/>
<path d="M280.169 108.184L277.322 108.184L277.322 105.424L280.169 105.424L280.169 108.184Z" fill="#009188"/>
<path d="M277.321 102.486L277.321 102.531L277.273 102.531L277.273 102.486L277.321 102.486Z" fill="#009188"/>
<path d="M277.322 99.7275L280.169 99.7275L280.169 102.487L277.322 102.487C277.322 101.563 277.322 100.64 277.322 99.7275Z" fill="#009188"/>
<path d="M280.168 102.486L280.212 102.486L280.212 102.534C280.198 102.534 280.182 102.534 280.168 102.534L280.168 102.486Z" fill="#009188"/>
<path d="M280.212 47.5718L280.168 47.5718C280.168 47.5563 280.168 47.5419 280.168 47.5264L280.213 47.5718L280.212 47.5718Z" fill="#009188"/>
<path d="M274.508 180.725L277.278 180.725L277.278 183.485C276.355 183.485 275.433 183.485 274.508 183.485L274.508 180.725Z" fill="#009188"/>
<path d="M277.277 183.532L277.277 183.486L277.323 183.486L277.277 183.532Z" fill="#009188"/>
<path d="M274.518 166.043L274.518 163.274L277.279 163.274C277.279 164.196 277.279 165.118 277.279 166.043L274.518 166.043Z" fill="#009188"/>
<path d="M277.279 163.228L277.325 163.273L277.279 163.273L277.279 163.228Z" fill="#009188"/>
<path d="M277.279 154.55L277.325 154.595L277.279 154.595L277.279 154.55Z" fill="#009188"/>
<path d="M274.518 157.365L274.518 154.596L277.279 154.596C277.279 155.518 277.279 156.44 277.279 157.365L274.518 157.365Z" fill="#009188"/>
<path d="M274.385 105.375L274.43 105.375L274.43 105.42L274.385 105.375Z" fill="#009188"/>
<path d="M274.432 105.376L274.432 102.531L277.275 102.531L277.275 105.38C276.327 105.379 275.379 105.377 274.432 105.375L274.432 105.376Z" fill="#009188"/>
<path d="M277.323 82.2432L277.277 82.2887L277.277 82.2432L277.323 82.2432Z" fill="#009188"/>
<path d="M274.508 79.4824L277.278 79.4824L277.278 82.243C276.355 82.243 275.433 82.243 274.508 82.243L274.508 79.4824Z" fill="#009188"/>
<path d="M277.17 76.3968L274.492 76.3968L274.492 73.5519C275.406 73.5498 276.318 73.5498 277.17 73.5498L277.17 76.3958L277.17 76.3968Z" fill="#009188"/>
<path d="M274.491 73.5513C274.474 73.5513 274.457 73.5513 274.44 73.5513C274.437 73.5534 274.491 73.5059 274.491 73.5059L274.491 73.5503L274.491 73.5513Z" fill="#009188"/>
<path d="M274.385 70.6631L274.43 70.6631L274.43 70.7086L274.385 70.6631Z" fill="#009188"/>
<path d="M274.432 70.6634L274.432 67.8164L277.28 67.8164C277.28 68.7445 277.28 69.6736 277.28 70.6634L274.432 70.6634Z" fill="#009188"/>
<path d="M277.279 67.7715L277.325 67.817L277.279 67.817C277.279 67.8015 277.279 67.786 277.279 67.7715Z" fill="#009188"/>
<path d="M274.427 59.1431L274.379 59.1431L274.379 59.0986L274.427 59.0986L274.427 59.1431Z" fill="#009188"/>
<path d="M277.274 61.9907L274.428 61.9907L274.428 59.1416L277.274 59.1416L277.274 61.9907Z" fill="#009188"/>
<path d="M277.321 44.6782L277.273 44.6782L277.273 44.6338L277.321 44.6782Z" fill="#009188"/>
<path d="M274.514 44.6777L277.274 44.6777L277.274 47.5268L274.514 47.5268L274.514 44.6777Z" fill="#F2A317"/>
<path d="M277.273 47.5273L277.321 47.5273C277.321 47.5418 277.321 47.5573 277.321 47.5718L277.273 47.5718L277.273 47.5273Z" fill="#009188"/>
<path d="M274.381 33.0635L274.425 33.0635L274.425 33.111L274.381 33.0635Z" fill="#009188"/>
<path d="M274.426 33.0639C274.428 32.1162 274.429 31.1686 274.43 30.222C275.378 30.2199 276.327 30.2179 277.275 30.2158L277.275 33.0639L274.426 33.0639Z" fill="#009188"/>
<path d="M274.43 30.1758C274.43 30.1913 274.43 30.2068 274.43 30.2213C274.415 30.2213 274.4 30.2213 274.385 30.2213L274.43 30.1758Z" fill="#009188"/>
<path d="M271.613 143.121L274.383 143.121L274.383 145.882C273.461 145.882 272.539 145.882 271.613 145.882L271.613 143.121Z" fill="#009188"/>
<path d="M274.385 145.927L274.385 145.882L274.43 145.882L274.385 145.927Z" fill="#009188"/>
<path d="M274.385 119.893L274.385 119.848L274.43 119.848L274.385 119.893Z" fill="#009188"/>
<path d="M271.536 117.001L271.49 117.001L271.536 116.955L271.536 117.001Z" fill="#009188"/>
<path d="M274.383 119.848C273.455 119.848 272.525 119.848 271.535 119.848L271.535 117.001L274.383 117.001L274.383 119.848Z" fill="#FDCD00"/>
<path d="M274.385 105.376L274.43 105.421L274.385 105.421L274.385 105.376Z" fill="#009188"/>
<path d="M271.623 108.19L271.623 105.421L274.385 105.421C274.385 106.343 274.385 107.265 274.385 108.19L271.623 108.19Z" fill="#009188"/>
<path d="M274.291 91.043L274.291 93.8046L271.537 93.8046L271.537 91.043L274.291 91.043Z" fill="#009188"/>
<path d="M271.538 93.8047L271.538 93.8502L271.492 93.8047L271.538 93.8047Z" fill="#009188"/>
<path d="M271.588 87.9809L271.588 85.2471L274.294 85.2471L274.294 87.9809L271.588 87.9809Z" fill="#009188"/>
<path d="M274.441 73.5513C274.441 73.5368 274.441 73.5224 274.441 73.5079C274.458 73.5079 274.475 73.5079 274.492 73.5079C274.494 73.5058 274.44 73.5534 274.442 73.5513L274.441 73.5513Z" fill="#009188"/>
<path d="M274.385 70.6631L274.43 70.7086L274.385 70.7086C274.385 70.6931 274.385 70.6776 274.385 70.6631Z" fill="#009188"/>
<path d="M271.631 73.5107L271.631 70.709L274.386 70.709C274.405 71.6422 274.423 72.5744 274.441 73.5087C273.483 73.5107 272.527 73.5107 271.631 73.5107Z" fill="#009188"/>
<path d="M271.619 59.0981L271.619 56.249L274.38 56.249L274.38 59.0981L271.619 59.0981Z" fill="#009188"/>
<path d="M274.381 56.2485L274.381 56.2041L274.428 56.2041L274.428 56.2485L274.381 56.2485Z" fill="#009188"/>
<path d="M271.613 27.415L274.383 27.415L274.383 30.1756C273.461 30.1756 272.539 30.1756 271.613 30.1756L271.613 27.415Z" fill="#009188"/>
<path d="M274.43 30.1758L274.385 30.2213L274.385 30.1758L274.43 30.1758Z" fill="#009188"/>
<path d="M274.328 18.5352C274.328 18.5352 274.374 18.5869 274.372 18.5848C274.357 18.5848 274.343 18.5848 274.328 18.5848C274.328 18.5683 274.328 18.5518 274.328 18.5342L274.328 18.5352Z" fill="#009188"/>
<path d="M271.535 21.3969L271.535 18.6508C272.466 18.6292 273.396 18.6065 274.329 18.5859C274.331 19.5428 274.331 20.4966 274.331 21.3969L271.536 21.3969L271.535 21.3969Z" fill="#009188"/>
<path d="M274.295 6.93123L271.539 6.93123L271.539 4.29102L274.295 4.29102L274.295 6.93123Z" fill="#009188"/>
<path d="M271.422 180.684L271.422 183.402L268.73 183.402L268.73 180.684L271.422 180.684Z" fill="#009188"/>
<path d="M268.691 177.6L268.691 174.902L271.406 174.902L271.406 177.6L268.691 177.6Z" fill="#009188"/>
<path d="M268.734 125.589L268.734 122.836L271.417 122.836L271.417 125.589L268.734 125.589Z" fill="#009188"/>
<path d="M271.49 117.001L271.49 116.954C271.506 116.954 271.52 116.954 271.536 116.954L271.49 117L271.49 117.001Z" fill="#009188"/>
<path d="M268.643 116.946L268.643 114.191L271.49 114.191L271.49 116.954C270.541 116.951 269.592 116.948 268.643 116.946Z" fill="#009188"/>
<path d="M268.598 116.946C268.613 116.946 268.629 116.946 268.643 116.946L268.643 116.992L268.598 116.946Z" fill="#009188"/>
<path d="M268.729 96.6184L268.729 93.8496L271.49 93.8496C271.49 94.7715 271.49 95.6934 271.49 96.6184L268.729 96.6184Z" fill="#009188"/>
<path d="M271.492 93.8047L271.538 93.8502L271.492 93.8502L271.492 93.8047Z" fill="#009188"/>
<path d="M271.405 64.7934L268.643 64.7934L268.643 62.041L271.405 62.041L271.405 64.7934Z" fill="#FDCD00"/>
<path d="M268.641 62.0406L268.596 62.0406L268.641 61.9951L268.641 62.0406Z" fill="#009188"/>
<path d="M268.721 15.8438L271.491 15.8438L271.491 18.6043C270.568 18.6043 269.646 18.6043 268.721 18.6043L268.721 15.8438Z" fill="#009188"/>
<path d="M271.49 18.6055L271.536 18.6055C271.536 18.6055 271.511 18.6303 271.497 18.6437L271.536 18.6055L271.536 18.6499C271.52 18.6499 271.505 18.6499 271.49 18.651L271.49 18.6055Z" fill="#009188"/>
<path d="M265.824 189.211L265.824 186.514L268.539 186.514L268.539 189.211L265.824 189.211Z" fill="#009188"/>
<path d="M268.49 166.259L268.49 168.957L265.791 168.957L265.791 166.259L268.49 166.259Z" fill="#009188"/>
<path d="M265.812 151.606L265.812 148.852L268.495 148.852L268.495 151.606L265.812 151.606Z" fill="#009188"/>
<path d="M265.836 119.76L265.836 116.991L268.598 116.991C268.598 117.913 268.598 118.835 268.598 119.76L265.836 119.76Z" fill="#009188"/>
<path d="M268.598 116.946L268.643 116.992L268.598 116.992L268.598 116.946Z" fill="#009188"/>
<path d="M265.779 79.2684L265.779 76.6035L268.53 76.6035L268.53 79.2684L265.779 79.2684Z" fill="#009188"/>
<path d="M268.596 62.0406L268.596 61.9951L268.641 61.9951L268.596 62.0406Z" fill="#009188"/>
<path d="M265.826 61.995L265.826 59.2344L268.596 59.2344L268.596 61.995C267.674 61.995 266.752 61.995 265.826 61.995Z" fill="#009188"/>
<path d="M265.83 56.1332L265.83 53.3994L268.536 53.3994L268.536 56.1332L265.83 56.1332Z" fill="#009188"/>
<path d="M268.598 35.9521L268.643 35.9976L268.598 35.9976L268.598 35.9521Z" fill="#009188"/>
<path d="M265.836 38.7669L265.836 35.998L268.598 35.998C268.598 36.92 268.598 37.8419 268.598 38.7669L265.836 38.7669Z" fill="#009188"/>
<path d="M262.936 194.98L262.936 192.246L265.642 192.246L265.642 194.98L262.936 194.98Z" fill="#009188"/>
<path d="M265.618 145.787L262.855 145.787L262.855 143.034L265.618 143.034L265.618 145.787Z" fill="#009188"/>
<path d="M262.854 143.035L262.809 143.035L262.854 142.989L262.854 143.035Z" fill="#009188"/>
<path d="M262.936 105.308L262.936 102.574L265.642 102.574L265.642 105.308L262.936 105.308Z" fill="#009188"/>
<path d="M262.947 73.522L262.947 70.7676L265.63 70.7676L265.63 73.522L262.947 73.522Z" fill="#009188"/>
<path d="M265.661 30.0739L262.906 30.0739L262.906 27.3926L265.661 27.3926L265.661 30.0739Z" fill="#009188"/>
<path d="M262.796 174.694L260.041 174.694L260.041 172.054L262.796 172.054L262.796 174.694Z" fill="#009188"/>
<path d="M260.039 142.988L260.039 140.228L262.809 140.228L262.809 142.988C261.887 142.988 260.964 142.988 260.039 142.988Z" fill="#009188"/>
<path d="M262.809 143.035L262.809 142.989L262.854 142.989L262.809 143.035Z" fill="#009188"/>
<path d="M259.963 125.624L259.963 122.862L262.716 122.862L262.716 125.624L259.963 125.624Z" fill="#009188"/>
<path d="M260.035 85.0686L260.035 82.3193L262.701 82.3193L262.701 85.0686L260.035 85.0686Z" fill="#009188"/>
<path d="M262.724 64.7934L259.961 64.7934L259.961 62.041L262.724 62.041L262.724 64.7934Z" fill="#009188"/>
<path d="M259.96 62.0406L259.914 62.0406L259.96 61.9951L259.96 62.0406Z" fill="#009188"/>
<path d="M259.99 15.6307L259.99 12.9658L262.741 12.9658L262.741 15.6307L259.99 15.6307Z" fill="#009188"/>
<path d="M260.012 9.82394L260.012 7.14258L262.767 7.14258L262.767 9.82394L260.012 9.82394Z" fill="#F2A317"/>
<path d="M257.156 192.08L257.156 189.362L259.847 189.362L259.847 192.08L257.156 192.08Z" fill="#009188"/>
<path d="M259.914 180.593L259.96 180.593C259.96 180.593 259.937 180.616 259.923 180.629L259.96 180.593L259.96 180.638L259.914 180.638L259.914 180.593Z" fill="#009188"/>
<path d="M257.145 177.832L259.914 177.832L259.914 180.593C258.992 180.593 258.07 180.593 257.145 180.593L257.145 177.832Z" fill="#009188"/>
<path d="M257.154 128.438L257.154 125.669L259.916 125.669C259.916 126.591 259.916 127.513 259.916 128.438L257.154 128.438Z" fill="#F2A317"/>
<path d="M259.916 125.67L259.916 125.624C259.916 125.624 259.94 125.648 259.953 125.661L259.916 125.624L259.962 125.624L259.962 125.67L259.916 125.67Z" fill="#009188"/>
<path d="M257.148 108.164L257.148 105.523L259.904 105.523L259.904 108.164L257.148 108.164Z" fill="#009188"/>
<path d="M257.102 99.7363L259.857 99.7363L259.857 102.418L257.102 102.418L257.102 99.7363Z" fill="#009188"/>
<path d="M257.145 61.995L257.145 59.2344L259.914 59.2344L259.914 61.995C258.992 61.995 258.07 61.995 257.145 61.995Z" fill="#009188"/>
<path d="M259.914 62.0406L259.914 61.9951L259.96 61.9951L259.914 62.0406Z" fill="#009188"/>
<path d="M259.848 33.2139L259.848 35.8788L257.098 35.8788L257.098 33.2139L259.848 33.2139Z" fill="#FDCD00"/>
<path d="M257.164 30.0835L257.164 27.3291L259.838 27.3291L259.838 30.0835L257.164 30.0835Z" fill="#009188"/>
<path d="M257.154 21.4137L257.154 18.6953L259.846 18.6953L259.846 21.4137L257.154 21.4137Z" fill="#009188"/>
<path d="M254.232 168.912L254.232 166.247L256.983 166.247L256.983 168.912L254.232 168.912Z" fill="#009188"/>
<path d="M256.923 146.003L256.923 148.716L254.225 148.716L254.225 146.003L256.923 146.003Z" fill="#FDCD00"/>
<path d="M256.937 76.3637L254.174 76.3637L254.174 73.6113L256.937 73.6113L256.937 76.3637Z" fill="#F2A317"/>
<path d="M254.174 73.6109L254.129 73.6109L254.174 73.5654L254.174 73.6109Z" fill="#009188"/>
<path d="M254.275 53.2766L254.275 50.5273L256.941 50.5273L256.941 53.2766L254.275 53.2766Z" fill="#FDCD00"/>
<path d="M254.275 44.5989L254.275 41.8496L256.941 41.8496L256.941 44.5989L254.275 44.5989Z" fill="#009188"/>
<path d="M256.937 1.1547L254.174 1.1547L254.174 -1.59766L256.937 -1.59766L256.937 1.1547Z" fill="#009188"/>
<path d="M251.322 174.742L251.322 172.044L254.021 172.044L254.021 174.742L251.322 174.742Z" fill="#009188"/>
<path d="M251.357 70.8047L254.127 70.8047L254.127 73.5653C253.205 73.5653 252.283 73.5653 251.357 73.5653L251.357 70.8047Z" fill="#F2A317"/>
<path d="M254.127 73.6109L254.127 73.5654L254.172 73.5654L254.127 73.6109Z" fill="#009188"/>
<path d="M251.338 27.1717L251.338 24.5068L254.088 24.5068L254.088 27.1717L251.338 27.1717Z" fill="#009188"/>
<path d="M248.436 148.673L248.436 145.976L251.15 145.976L251.15 148.673L248.436 148.673Z" fill="#009188"/>
<path d="M248.445 102.436L248.445 99.7178L251.137 99.7178L251.137 102.436L248.445 102.436Z" fill="#009188"/>
<path d="M248.389 35.8548L248.389 33.1816L251.144 33.1816L251.144 35.8548L248.389 35.8548Z" fill="#009188"/>
<path d="M245.561 73.5532L245.561 70.7988L248.235 70.7988L248.235 73.5532L245.561 73.5532Z" fill="#009188"/>
<path d="M245.568 6.97419L245.568 4.27637L248.283 4.27637L248.283 6.97419L245.568 6.97419Z" fill="#009188"/>
<path d="M242.691 134.22L242.691 131.466L245.333 131.466L245.333 134.22L242.691 134.22Z" fill="#009188"/>
<path d="M242.664 67.7202L242.664 64.9668L245.346 64.9668L245.346 67.7202L242.664 67.7202Z" fill="#009188"/>
<path d="M236.912 171.875L236.912 169.126L239.578 169.126L239.578 171.875L236.912 171.875Z" fill="#F2A317"/>
<path d="M236.896 160.293L236.896 157.595L239.595 157.595L239.595 160.293L236.896 160.293Z" fill="#009188"/>
<path d="M236.893 1.17118L236.893 -1.50195L239.648 -1.50195L239.648 1.17118L236.893 1.17118Z" fill="#009188"/>
<path d="M234 102.413L234 99.7402L236.755 99.7402L236.755 102.413L234 102.413Z" fill="#FDCD00"/>
<path d="M291.871 21.626L297.533 21.626L297.533 24.3907C295.65 24.3907 293.766 24.3907 291.871 24.3907L291.871 21.626Z" fill="#009188"/>
<path d="M297.535 24.4361L297.535 24.3906L297.581 24.3906L297.535 24.4361Z" fill="#009188"/>
<path d="M297.581 82.2799L297.535 82.2799L297.535 82.2344L297.581 82.2799Z" fill="#009188"/>
<path d="M297.535 82.2793C297.535 83.2012 297.535 84.1231 297.535 85.0481L294.773 85.0481L294.773 82.2793L297.535 82.2793Z" fill="#009188"/>
<path d="M228.891 175.028L228.891 172.176L226.061 172.176L226.061 166.335L223.246 166.335L223.246 169.227L220.32 169.227L220.32 172.156L223.255 172.156L223.255 180.753L226.062 180.753L226.062 175.027L228.892 175.027L228.891 175.028Z" fill="#FDCD00" fill-opacity="0.5"/>
<path d="M220.268 50.5577L223.256 50.5577L223.256 47.6922L226.061 47.6922L226.061 44.8431C224.148 44.8452 222.236 44.8462 220.323 44.8482L220.323 47.7776L217.428 47.7776L217.428 53.4716C218.374 53.4716 219.321 53.4716 220.267 53.4727L220.267 50.5577L220.268 50.5577Z" fill="#FDCD00" fill-opacity="0.5"/>
<path d="M202.961 16L202.961 18.7606L205.898 18.7606L205.898 21.6035L208.628 21.6035L208.628 16L202.961 16Z" fill="#FDCD00" fill-opacity="0.5"/>
<path d="M200.154 102.778L200.154 108.387L202.847 108.387L202.847 102.778L200.154 102.778Z" fill="#FDCD00" fill-opacity="0.5"/>
<path d="M217.383 79.5504C216.455 79.5504 215.525 79.5504 214.535 79.5504L214.535 82.3975L217.383 82.3975L217.383 79.5504Z" fill="#FDCD00" fill-opacity="0.5"/>
<path d="M214.405 134.605L211.643 134.605L211.643 137.357L214.405 137.357L214.405 134.605Z" fill="#FDCD00" fill-opacity="0.5"/>
<path d="M202.848 166.185L202.848 163.52L200.098 163.52L200.098 166.185L202.848 166.185Z" fill="#FDCD00" fill-opacity="0.5"/>
<path d="M199.922 53.3955L199.922 50.6823L197.223 50.6823L197.223 53.3955L199.922 53.3955Z" fill="#FDCD00" fill-opacity="0.5"/>
<path d="M197.275 146.122L197.275 148.871L199.941 148.871L199.941 146.122L197.275 146.122Z" fill="#FDCD00" fill-opacity="0.5"/>
<path d="M177 96.9851L177 99.6582L179.755 99.6582L179.755 96.9851L177 96.9851Z" fill="#FDCD00" fill-opacity="0.5"/>
<path d="M176.891 175.028L176.891 172.176L174.061 172.176L174.061 166.335L171.246 166.335L171.246 169.227L168.32 169.227L168.32 172.156L171.255 172.156L171.255 180.753L174.062 180.753L174.062 175.027L176.892 175.027L176.891 175.028Z" fill="#FDCD00" fill-opacity="0.1"/>
<path d="M168.268 50.5577L171.256 50.5577L171.256 47.6922L174.061 47.6922L174.061 44.8431C172.148 44.8452 170.236 44.8462 168.323 44.8482L168.323 47.7776L165.428 47.7776L165.428 53.4716C166.374 53.4716 167.321 53.4716 168.267 53.4727L168.267 50.5577L168.268 50.5577Z" fill="#FDCD00" fill-opacity="0.1"/>
<path d="M150.961 16L150.961 18.7606L153.898 18.7606L153.898 21.6035L156.628 21.6035L156.628 16L150.961 16Z" fill="#FDCD00" fill-opacity="0.1"/>
<path d="M148.154 102.778L148.154 108.387L150.847 108.387L150.847 102.778L148.154 102.778Z" fill="#FDCD00" fill-opacity="0.1"/>
<path d="M165.383 79.5504C164.455 79.5504 163.525 79.5504 162.535 79.5504L162.535 82.3975L165.383 82.3975L165.383 79.5504Z" fill="#FDCD00" fill-opacity="0.1"/>
<path d="M162.405 134.605L159.643 134.605L159.643 137.357L162.405 137.357L162.405 134.605Z" fill="#FDCD00" fill-opacity="0.1"/>
<path d="M150.848 166.185L150.848 163.52L148.098 163.52L148.098 166.185L150.848 166.185Z" fill="#FDCD00" fill-opacity="0.1"/>
<path d="M147.922 53.3955L147.922 50.6823L145.223 50.6823L145.223 53.3955L147.922 53.3955Z" fill="#FDCD00" fill-opacity="0.1"/>
<path d="M145.275 146.122L145.275 148.871L147.941 148.871L147.941 146.122L145.275 146.122Z" fill="#FDCD00" fill-opacity="0.1"/>
<path d="M125 96.9851L125 99.6582L127.755 99.6582L127.755 96.9851L125 96.9851Z" fill="#FDCD00" fill-opacity="0.1"/>
</g>
<defs>
<radialGradient id="paint0_radial_1149_1809" cx="0" cy="0" r="1" gradientUnits="userSpaceOnUse" gradientTransform="translate(55.5 149.5) rotate(-45) scale(200.818)">
<stop stop-color="#00B1A7"/>
<stop offset="0.43336" stop-color="#00867E"/>
<stop offset="1" stop-color="#005C83"/>
</radialGradient>
<clipPath id="clip0_1149_1809">
<rect width="320" height="196" rx="10" fill="white"/>
</clipPath>
</defs>
</svg>
