<svg width="30" height="30" viewBox="0 0 30 30" fill="none" xmlns="http://www.w3.org/2000/svg">
<path d="M2.90619 10.205H0.117188V3.173C0.11798 2.33223 0.45212 1.52608 1.04635 0.931286C1.64059 0.336491 2.44642 0.00158798 3.28719 0H10.3192V2.789H3.28719C3.18534 2.789 3.08767 2.82946 3.01566 2.90147C2.94364 2.97348 2.90319 3.07116 2.90319 3.173L2.90619 10.205Z" fill="#474A53"/>
<path d="M26.6277 29.685H19.5957V26.896H26.6277C26.7295 26.896 26.8272 26.8555 26.8992 26.7835C26.9712 26.7115 27.0117 26.6138 27.0117 26.512V19.48H29.8007V26.512C29.7999 27.3533 29.4653 28.1599 28.8705 28.7548C28.2756 29.3496 27.469 29.6842 26.6277 29.685Z" fill="#474A53"/>
<path d="M29.8007 10.205H27.0117V3.173C27.0117 3.07116 26.9712 2.97348 26.8992 2.90147C26.8272 2.82946 26.7295 2.789 26.6277 2.789H19.5957V0H26.6277C27.469 0.000794293 28.2756 0.335347 28.8705 0.930227C29.4654 1.52511 29.7999 2.33171 29.8007 3.173V10.205Z" fill="#474A53"/>
<path d="M10.3213 29.685H3.28628C2.44499 29.6842 1.63839 29.3496 1.04351 28.7548C0.448628 28.1599 0.114076 27.3533 0.113281 26.512V19.48H2.90528V26.512C2.90528 26.6138 2.94574 26.7115 3.01775 26.7835C3.08977 26.8555 3.18744 26.896 3.28928 26.896H10.3213V29.685Z" fill="#474A53"/>
<path d="M28.1755 16.2368H1.3945C1.02466 16.2368 0.669959 16.0898 0.40844 15.8283C0.14692 15.5668 0 15.2121 0 14.8423C0 14.4724 0.14692 14.1177 0.40844 13.8562C0.669959 13.5947 1.02466 13.4478 1.3945 13.4478H28.1745C28.5443 13.4478 28.899 13.5947 29.1606 13.8562C29.4221 14.1177 29.569 14.4724 29.569 14.8423C29.569 15.2121 29.4221 15.5668 29.1606 15.8283C28.899 16.0898 28.5443 16.2368 28.1745 16.2368" fill="#474A53"/>
</svg>
