<svg width="512" height="512" viewBox="0 0 512 512" fill="none" xmlns="http://www.w3.org/2000/svg">
<rect width="512" height="512" fill="#1D2140"/>
<path d="M201.056 180.567H215.429L202.28 149.986H183.421L110.842 275.674L120.322 291.984L153.35 288.11L146.214 275.674L201.056 180.567Z" fill="#FFD987"/>
<path d="M310.944 370.781H201.056L193.921 358.345L174.043 385.052L183.421 401.362H328.579L337.957 385.052L318.08 358.345L310.944 370.781Z" fill="#FFD987"/>
<path d="M328.579 149.986H309.721L296.571 180.567H310.944L365.888 275.674L358.65 288.11L391.678 291.984L401.158 275.674L328.579 149.986Z" fill="#FFD987"/>
<path d="M128.579 306.357L56 314.92L121.749 353.146L121.953 429.191L165.684 370.577L185.562 343.972L221.749 295.45L161.708 302.483L128.579 306.357Z" fill="white"/>
<path d="M321.953 82.8096L256 120.628L190.047 82.8096L218.895 149.986L232.045 180.567L256 236.122L279.955 180.567L293.105 149.986L321.953 82.8096Z" fill="white"/>
<path d="M383.421 306.357L350.394 302.483L290.251 295.45L326.439 343.972L346.316 370.577L390.047 429.191L390.251 353.146L456 314.92L383.421 306.357Z" fill="white"/>
</svg>
