<svg width="512" height="512" viewBox="0 0 512 512" fill="none" xmlns="http://www.w3.org/2000/svg">
<rect width="512" height="512" fill="#00867E"/>
<circle cx="256" cy="256" r="242" fill="url(#paint0_radial_1149_2312)"/>
<path d="M356.005 358.692H345.996V368.016H356.005V358.692Z" fill="#F2A317"/>
<path d="M366.004 330.682H356.008V340.019H366.004V330.682Z" fill="#F2A317"/>
<path d="M166.002 237.353H155.992V246.663H166.002V237.353Z" fill="#FAF1CE"/>
<path d="M396.019 209.329H386.009H376H366.004V218.666V227.989V237.353V246.663V256V265.35V274.66V283.997V293.348V302.658V311.995H356.008V321.332V330.682H366.004V340.005H356.008V330.682H345.999V340.005H336.016V349.329H326.007V358.692V368.016H316.011H306.015V377.34H296.005V386.69H286.009H276V396H286.009H296.005H306.015H316.011V386.69H326.007H336.016V377.34H345.999V368.016V358.692H356.008V368.016H366.004V358.692V349.329H376V340.005H386.009V330.682V321.332H396.019V311.995V302.658H406.001V293.348V283.997V274.66V265.35V256V246.663V237.353V227.989V218.666V209.329H396.019Z" fill="#F2A317"/>
<path d="M296.005 386.449V386.69H276V396H316.011V386.69H336.016V386.449H296.005Z" fill="#1D1D1B"/>
<path d="M356.005 181.345H345.996V190.668H356.005V181.345Z" fill="white"/>
<path d="M345.999 209.329V181.345H336.003V172.021H326.007V162.671H315.998V153.348H306.002V144.011H296.006V134.66H276V125.323H195.992V134.66H176V144.011H165.991V153.348H155.982V162.671H145.986V172.021H135.99V190.682H125.98V209.342H115.984V302.671H125.98V321.331H135.99V340.019H145.986V349.342H155.982V358.706H165.991V368.029H176V377.353H195.992V386.703H276V377.353H296.006V368.029H306.002V358.706H315.998V349.342H326.007V340.019H336.003V330.682H345.999V312.008H356.008V209.342H345.999V209.329ZM155.995 218.666V200.005H166.004V190.682H176.014V181.358H186.01V172.035H196.006V162.684H276.014V172.035H286.01V181.358H296.006V190.682H306.002V200.005H315.998V218.666H326.007V293.348H315.998V312.008H306.002V321.331H296.006V330.682H286.01V340.019H276.014V349.342H196.006V340.019H186.01V330.682H176.014V321.331H166.004V312.008H155.995V293.348H145.999V218.666H155.995Z" fill="#FDCD00"/>
<path d="M176 209.329H166.004V218.666V227.989V237.353V246.663V256V265.35V274.66V283.997H176V293.347V302.658H186.009V311.994H196.005V321.331H206.001H215.997V330.682H226.007H236.003H245.999H256.008H266.017V321.331H276H286.009V311.994H296.005V302.658H306.015V293.347V283.997H316.011V274.66V265.35V256V246.663V237.353V227.989H306.015V218.666V209.329V200.005H296.005V190.682H286.009V181.345H276H266.017V172.021H256.008H245.999H236.003H226.007H215.997H206.001V181.345H196.005H186.009V190.682H176V200.005V209.329Z" fill="#FDCD00"/>
<path d="M386.009 181.345V172.021V162.671H376V172.021H366.004H356.008V181.345V190.682V200.005H366.004V190.682H376H386.009V200.005V209.329H396.019V200.005V190.682V181.345H386.009Z" fill="#F2A317"/>
<path d="M366.004 153.348V144.011H356.008H345.999V134.66H336.016V125.324H326.007H316.011V116H306.015H296.005H286.009H276V125.324H286.009H296.005V134.66H306.015V144.011H316.011V153.348H326.007V162.671H336.016H345.999H356.008H366.004H376V153.348H366.004Z" fill="#F2A317"/>
<path d="M386.009 181.345V172.021V162.671H376V172.021H366.004H356.008V181.345V190.682V200.005H366.004V190.682H376H386.009V200.005V209.329H396.019V200.005V190.682V181.345H386.009Z" fill="#F2A317"/>
<path d="M386.009 181.345V172.021V162.671H376V172.021V181.345H386.009V190.682V199.992V209.329H396.019V199.992V190.682V181.345H386.009Z" fill="#1D1D1B"/>
<path d="M346.012 134.66H336.016V144.011H346.012V134.66Z" fill="#1D1D1B"/>
<path d="M346 153.348H356.009H366.005V144.011H356.009H346V153.348Z" fill="#1D1D1B"/>
<path d="M326.006 134.66H336.015V125.323H326.006H316.01V134.66H326.006Z" fill="#1D1D1B"/>
<path d="M376 153.348H366.004V162.671H376V153.348Z" fill="#1D1D1B"/>
<path d="M286.009 125.324H296.005H306.015H316.011V116H306.015H296.005H286.009H276V125.324H286.009Z" fill="#1D1D1B"/>
<path d="M356.005 330.682H345.996V340.005H356.005V330.682Z" fill="#1D1D1B"/>
<path d="M396.017 209.329H386.008H396.017V218.666V227.989V237.353V246.663V256V265.35V274.66V283.997V293.348V302.658H406V293.348V283.997V274.66V265.35V256V246.663V237.353V227.989V218.666V209.329H396.017Z" fill="#1D1D1B"/>
<path d="M356.004 349.329V358.693V368.016H366V358.693V349.329H356.004Z" fill="#1D1D1B"/>
<path d="M375.996 340.005H366V349.329H375.996V340.005Z" fill="#1D1D1B"/>
<path d="M386.005 302.658V311.995V321.345H375.996V330.682V340.005H386.005V330.682V321.345H396.015V311.995V302.658H386.005Z" fill="#1D1D1B"/>
<path d="M316.008 386.69H306.012V396H316.008V386.69Z" fill="#1D1D1B"/>
<path d="M345.994 368.016V358.692H336.012V368.016V377.339H345.994V368.016Z" fill="#1D1D1B"/>
<path d="M336 377.34H326.004V386.69H336V377.34Z" fill="#1D1D1B"/>
<path d="M275.999 377.34V386.69H266.016H256.007H245.997H236.001H226.005H215.996H206H196.004V396H206H215.996H226.005H236.001H245.997H256.007H266.016H275.999V386.69H286.008H296.004V377.34H286.008H275.999Z" fill="#1D1D1B"/>
<path d="M306 368.016H296.004V377.34H306V368.016Z" fill="#1D1D1B"/>
<path d="M316.01 358.693H306.014V368.016H316.01H326.006V358.693V349.329H316.01V358.693Z" fill="#1D1D1B"/>
<path d="M336 340.005H326.004V349.329H336V340.005Z" fill="#1D1D1B"/>
<path d="M346.012 330.682H336.016V340.019H346.012V330.682Z" fill="#1D1D1B"/>
<path d="M345.996 321.345V330.682H356.005V321.345V311.995H345.996V321.345Z" fill="#1D1D1B"/>
<path d="M356.008 218.666V227.989V237.353V246.663V256V265.35V274.66V283.997V293.348V302.658V311.995H366.004V302.658V293.348V283.997V274.66V265.35V256V246.663V237.353V227.989V218.666H356.008Z" fill="#1D1D1B"/>
<path d="M345.996 200.005V209.329H356.005V200.005V190.682H345.996V200.005Z" fill="#1D1D1B"/>
<path d="M346.012 172.021H336.016V181.345H346.012V172.021Z" fill="#1D1D1B"/>
<path d="M296.004 321.345H286.008V330.682H296.004V321.345Z" fill="#1D1D1B"/>
<path d="M306.013 218.666V227.989H316.009V237.353V246.663V256V265.35V274.66V283.997H306.013V293.348V302.658H296.004V311.995V321.345H306.013V311.995H316.009V302.658V293.348H326.005V283.997V274.66V265.35V256V246.663V237.353V227.989V218.666H316.009V209.329V199.992H306.013V209.329V218.666Z" fill="#1D1D1B"/>
<path d="M306 190.682H296.004V199.992H306V190.682Z" fill="#1D1D1B"/>
<path d="M296.004 181.345H286.008V190.668H296.004V181.345Z" fill="#1D1D1B"/>
<path d="M336 162.671H326.004V172.021H336V162.671Z" fill="#1D1D1B"/>
<path d="M326.019 153.348H316.01V162.671H326.019V153.348Z" fill="#1D1D1B"/>
<path d="M316.01 144.011H306.014V153.348H316.01V144.011Z" fill="#1D1D1B"/>
<path d="M306 134.66H296.004V144.011H306V134.66Z" fill="#1D1D1B"/>
<path d="M275.998 134.66H286.007H296.003V125.323H286.007H275.998V134.66Z" fill="#1D1D1B"/>
<path d="M186.007 377.34H175.998V386.69H186.007H196.003V377.34H186.007Z" fill="#1D1D1B"/>
<path d="M176.011 368.016H166.002V377.34H176.011V368.016Z" fill="#1D1D1B"/>
<path d="M155.994 358.693V349.329H145.998V358.693V368.016H155.994H166.003V358.693H155.994Z" fill="#1D1D1B"/>
<path d="M145.998 340.005H136.002V349.329H145.998V340.005Z" fill="#1D1D1B"/>
<path d="M206 349.329H215.996H226.005H236.001H245.997H256.006H266.016H275.998V340.005H286.008V330.682H275.998H266.016V340.005H256.006H245.997H236.001H226.005H215.996H206V330.682H196.004H186.008V340.005H196.004V349.329H206Z" fill="#1D1D1B"/>
<path d="M185.994 321.345H175.998V330.682H185.994V321.345Z" fill="#1D1D1B"/>
<path d="M136.002 321.345H125.992V330.682V340.005H136.002V330.682V321.345Z" fill="#1D1D1B"/>
<path d="M125.992 302.658H115.996V311.995V321.345H125.992V311.995V302.658Z" fill="#1D1D1B"/>
<path d="M115.996 283.997V274.66V265.35V256V246.663V237.353V227.989V218.666H106V227.989V237.353V246.663V256V265.35V274.66V283.997V293.348H115.996V283.997Z" fill="#1D1D1B"/>
<path d="M175.999 302.658H166.003V293.348V283.997H155.994V274.66V265.35V256V246.663V237.353V227.989H166.003V218.666V209.329H175.999V199.992V190.682H166.003V199.992H155.994V209.329V218.666H145.998V227.989V237.353V246.663V256V265.35V274.66V283.997V293.348H155.994V302.658V311.995H166.003V321.345H175.999V311.995V302.658Z" fill="#1D1D1B"/>
<path d="M125.992 199.992V190.682H115.996V199.992V209.329H125.992V199.992Z" fill="#1D1D1B"/>
<path d="M185.994 181.345H175.998V190.668H185.994V181.345Z" fill="#1D1D1B"/>
<path d="M136.002 181.345V172.021H125.992V181.345V190.682H136.002V181.345Z" fill="#1D1D1B"/>
<path d="M206 181.345V172.021H215.996H226.005H236.001H245.997H256.006H266.016V181.345H275.998H286.008V172.021H275.998V162.671H266.016H256.006H245.997H236.001H226.005H215.996H206H196.004V172.021H186.008V181.345H196.004H206Z" fill="#1D1D1B"/>
<path d="M145.998 162.671H136.002V172.021H145.998V162.671Z" fill="#1D1D1B"/>
<path d="M155.994 153.348H145.998V162.671H155.994V153.348Z" fill="#1D1D1B"/>
<path d="M166.004 144.011H155.994V153.348H166.004V144.011Z" fill="#1D1D1B"/>
<path d="M176.011 134.66H166.002V144.011H176.011V134.66Z" fill="#1D1D1B"/>
<path d="M196.003 134.66V125.323H186.007H175.998V134.66H186.007H196.003Z" fill="#1D1D1B"/>
<path d="M215.996 125.324H226.005H236.001H245.997H256.007H266.016H275.999V116H266.016H256.007H245.997H236.001H226.005H215.996H206H196.004V125.324H206H215.996Z" fill="#1D1D1B"/>
<path d="M375.996 190.682H366V200.005H356.004V209.329V218.666H366V209.329H375.996H386.005V200.005V190.682H375.996Z" fill="white"/>
<path d="M366 162.671H356.004H345.994H336.012V172.021H345.994V181.345H356.004V172.021H366H375.996V162.671H366Z" fill="white"/>
<path d="M245.997 330.682H236.001H226.005H215.995V321.332H205.999H196.003V311.995H186.007V302.658H175.998V311.995V321.332H186.007V330.682H196.003H205.999V340.005H215.995H226.005H236.001H245.997H256.006H266.015V330.682H256.006H245.997Z" fill="white"/>
<path d="M266.016 321.332V330.682H275.998H286.008V321.332H275.998H266.016Z" fill="white"/>
<path d="M296.004 311.995H286.008V321.318H296.004V311.995Z" fill="white"/>
<path d="M175.998 283.997H166.002V293.348V302.658H175.998V293.348V283.997Z" fill="white"/>
<path d="M166.002 265.35V256V246.663H155.992V256V265.35V274.66V283.997H166.002V274.66V265.35Z" fill="white"/>
<path d="M166.002 227.989H155.992V237.34H166.002V227.989Z" fill="white"/>
<path d="M221 246.994V238H213V246.994V256H221V246.994Z" fill="#1D1D1B"/>
<path d="M221 282.994V274H213V282.994V292H221V282.994Z" fill="#1D1D1B"/>
<path d="M253 264.994V256H221V264.994V274H253V264.994Z" fill="#1D1D1B"/>
<path d="M230 228.994V220H221V228.994V238H230V228.994Z" fill="#1D1D1B"/>
<path d="M261 246.994V238H253V246.994V256H261V246.994Z" fill="#1D1D1B"/>
<path d="M261 282.994V274H253V282.994V292H261V282.994Z" fill="#1D1D1B"/>
<path d="M253 228.994V220H244V228.994V238H253V228.994Z" fill="#1D1D1B"/>
<defs>
<radialGradient id="paint0_radial_1149_2312" cx="0" cy="0" r="1" gradientUnits="userSpaceOnUse" gradientTransform="translate(256 256) rotate(90) scale(242)">
<stop stop-color="white"/>
<stop offset="1" stop-color="#00867E" stop-opacity="0"/>
</radialGradient>
</defs>
</svg>
