<?xml version="1.0" encoding="UTF-8" standalone="no"?>
<svg
   width="512"
   height="512"
   viewBox="0 0 512 512"
   fill="none"
   version="1.1"
   id="svg11998"
   sodipodi:docname="nft_default_5.svg"
   inkscape:version="1.2.1 (9c6d41e410, 2022-07-14)"
   xml:space="preserve"
   xmlns:inkscape="http://www.inkscape.org/namespaces/inkscape"
   xmlns:sodipodi="http://sodipodi.sourceforge.net/DTD/sodipodi-0.dtd"
   xmlns="http://www.w3.org/2000/svg"
   xmlns:svg="http://www.w3.org/2000/svg"><sodipodi:namedview
     id="namedview12000"
     pagecolor="#ffffff"
     bordercolor="#000000"
     borderopacity="0.25"
     inkscape:showpageshadow="2"
     inkscape:pageopacity="0.0"
     inkscape:pagecheckerboard="0"
     inkscape:deskcolor="#d1d1d1"
     showgrid="false"
     inkscape:zoom="0.74797181"
     inkscape:cx="-421.13887"
     inkscape:cy="323.5416"
     inkscape:window-width="2560"
     inkscape:window-height="1377"
     inkscape:window-x="-8"
     inkscape:window-y="-8"
     inkscape:window-maximized="1"
     inkscape:current-layer="svg11998" /><defs
     id="defs11996"><linearGradient
       id="paint0_linear_254_1476"
       x1="151.727"
       y1="277.348"
       x2="416"
       y2="199.387"
       gradientUnits="userSpaceOnUse"><stop
         stop-color="#23C3C4"
         id="stop11991" /><stop
         offset="1"
         stop-color="#A801F1"
         id="stop11993" /></linearGradient><linearGradient
       id="linear-gradient"
       x1="453.14059"
       y1="865.45831"
       x2="484.63394"
       y2="928.27704"
       gradientUnits="userSpaceOnUse"
       gradientTransform="matrix(5.1453741,-4.971987,2.5808011,2.4938341,-4409.8017,235.23156)"><stop
         offset="0"
         stop-color="#ffdc00"
         id="stop12038" /><stop
         offset="1"
         stop-color="#07e58a"
         id="stop12040" /></linearGradient><linearGradient
       id="paint0_linear_258_260"
       x1="67.5"
       y1="150.5"
       x2="393"
       y2="-38.5"
       gradientUnits="userSpaceOnUse"
       gradientTransform="matrix(1.7897172,0,0,2.7795499,-14.156825,-25.647818)"><stop
         stop-color="#1D2140"
         id="stop60" /><stop
         offset="1"
         stop-color="#5863B7"
         id="stop61" /></linearGradient><clipPath
       clipPathUnits="userSpaceOnUse"
       id="clipPath5"><g
         inkscape:label="Clip"
         id="use5"><circle
           id="circle377"
           style="fill:#cacaca;stroke:#000000"
           cx="415.78946"
           cy="463.1579"
           r="1.3248142" /></g></clipPath></defs><circle
     id="path5"
     style="fill:#cacaca;stroke:#000000"
     cx="-413.1579"
     cy="-234.21053"
     r="1.3248142" /><g
     id="g398"
     transform="matrix(1.3682878,0,0,1.2578087,-78.879092,-60.766023)"><path
       style="fill:#3d4859;stroke:none;stroke-width:0.51252"
       d="m 122.62404,47.635973 c -21.47357,2.171033 -47.791966,-6.161512 -60.663391,17.135588 -5.045239,9.132081 -3.913084,18.193428 -4.278508,28.188083 -0.688829,18.824846 0.01845,37.571286 0.01845,56.377696 v 202.95783 52.27703 c 0,13.26555 -0.703689,25.25903 7.808756,36.38891 11.119118,14.53813 26.940606,14.35055 43.443233,14.35055 h 41.51411 164.51885 53.30207 c 10.15352,0 20.68376,0.78826 30.75118,-0.66628 3.89413,-0.56274 7.78006,-1.97063 11.27544,-3.74395 28.27675,-14.34749 21.01332,-51.46878 21.01332,-77.59294 V 152.92497 96.547792 c 0,-11.014046 1.00198,-22.118814 -5.39274,-31.776231 -11.21342,-16.934162 -27.53,-17.42567 -45.85925,-17.42567 H 347.2743 l -145.04311,0.07742 c -26.17798,0 -53.56294,-2.421137 -79.60714,0.212696 z"
       id="path2-4" /><path
       style="fill:#fefefe;stroke:none;stroke-width:0.51252"
       d="m 63.702438,197.5142 0.04794,3.30297 -0.292215,0.79719 c 1.258906,10.29806 0.04794,23.21507 1.75786,33.31379 0.56549,3.33977 0.351668,7.40854 -1.75786,10.19356 l -0.488549,1.57546 0.732823,0.77824 c 1.484772,1.95988 3.683238,5.48113 2.198466,7.44101 l -1.22137,0.77825 c 1.669792,3.00286 -0.440606,7.17551 -0.440606,10.51612 0,7.6632 -0.240053,15.41558 0.03619,23.06339 1.230047,34.04157 -0.04951,67.62626 1.185179,101.97251 0.0055,13.88518 -1.87035,32.19597 6.980875,44.0767 11.620869,15.59854 35.992218,10.76291 52.912038,10.76291 h 142.99303 101.99143 c 14.41975,0 31.66963,2.87268 42.96454,-8.28949 8.60111,-8.49911 8.79997,-19.87295 8.79997,-31.17453 V 359.98297 148.31229 95.010234 c 0,-10.733195 0.37465,-21.443834 -7.70829,-29.718465 -10.04539,-10.283711 -24.25706,-8.80355 -37.39345,-8.227989 -11.22932,0.491509 -22.58521,0.01999 -33.82631,0.01999 H 148.4166 101.77729 c -11.354876,0 -21.564273,-0.357746 -29.55907,9.225351 -8.138301,9.754792 -4.928125,25.61727 -5.292278,37.413949 l -1.954192,63.30567 c -0.296826,9.6156 1.602334,21.28214 -1.269312,30.48546 z"
       id="path3-47"
       sodipodi:nodetypes="cccscccccscccscscsccsscscscssc" /></g><g
     id="g439"
     transform="matrix(1.3411207,0,0,1.3411207,-80.570821,-88.74727)"><path
       id="path2"
       style="fill:#cacaca;stroke:#000000"
       sodipodi:type="arc"
       sodipodi:cx="92.734978"
       sodipodi:cy="457.48331"
       sodipodi:rx="1.3248142"
       sodipodi:ry="0.79357541"
       sodipodi:start="0"
       sodipodi:end="1.0009638"
       sodipodi:arc-type="slice"
       d="m 94.059792,457.48331 a 1.3248142,0.79357541 0 0 1 -0.610089,0.66818 l -0.714725,-0.66818 z" /><circle
       id="path3"
       style="fill:#cacaca;stroke:#000000"
       cx="94.736839"
       cy="452.63159"
       r="1.3248142" /><path
       style="fill:#3d4859;stroke:none;stroke-width:0.51252"
       d="m 181.73039,92.173442 c -12.48805,2.266872 -24.17813,15.272568 -25.06734,27.950248 -0.96354,13.72734 8.4007,27.54898 23.52978,24.87567 12.82427,-2.26585 23.58001,-11.66392 26.93035,-24.36313 4.39947,-16.67586 -8.07885,-31.606082 -25.39279,-28.462788 M 144.82896,202.12687 c -5.35993,12.87349 -11.52504,24.61274 -14.44332,38.43899 -6.26812,29.69232 1.60111,61.21025 16.42831,87.12838 4.75669,8.3146 11.25699,16.29453 18.00379,23.06338 2.52928,2.53749 9.13721,6.30501 10.15149,9.74557 0.6673,2.26431 -5.88733,11.18164 -8.14958,11.76591 -3.28782,0.84925 -6.85598,-0.56531 -10.20273,0.58222 -9.18743,3.15047 -13.57307,13.87954 -9.63794,22.49552 6.77039,14.82361 25.26364,12.16261 31.34572,-1.53756 2.68816,-6.05593 -1.61188,-10.85516 -1.16395,-16.40064 0.16555,-2.04597 4.98683,-9.53543 7.1799,-9.65228 1.79023,-0.0958 4.12014,2.10543 5.59005,2.98954 4.13091,2.48469 8.35305,4.80793 12.813,6.6566 13.51104,5.60185 29.36431,10.07972 44.07671,10.25449 17.65887,0.21014 35.58271,-2.6733 52.05971,-9.06339 5.45372,-2.11517 11.0494,-4.77976 16.10541,-7.71753 2.09929,-1.21979 5.20209,-4.25853 7.66731,-4.38974 2.67279,-0.14196 7.8477,7.94202 7.9256,10.4098 0.11993,3.80239 -2.63435,7.08149 -2.12081,11.27544 1.56883,12.80479 14.4915,22.62467 26.5024,14.42743 8.72566,-5.95548 9.18487,-20.99179 1.01941,-27.55307 -5.28511,-4.24622 -10.83878,-4.00483 -16.90547,-2.24996 -1.30487,-3.56406 -6.79345,-8.53602 -6.5336,-12.29278 0.25421,-3.67478 9.09722,-9.60668 11.61319,-12.30817 8.17366,-8.77844 16.92134,-20.40649 21.05893,-31.77622 h 1.02503 c 0.82157,2.17052 2.06853,4.37691 3.69527,6.06106 12.7356,13.18713 30.06697,-11.41382 14.33005,-19.91038 -1.89222,-1.02144 -4.09349,-1.46119 -6.23736,-1.4986 -3.0741,-0.0533 -5.18055,1.50731 -7.68781,3.04744 1.55909,-9.17052 4.64446,-17.79622 5.5506,-27.16355 1.59189,-16.45035 -1.35561,-33.54648 -6.24096,-49.2019 -18.4056,-58.98181 -83.24654,-99.39502 -143.84022,-86.27657 -21.594,4.67521 -40.95598,16.05315 -57.40222,30.55848 -5.07497,4.47533 -9.46265,9.83218 -13.51668,15.22902 -1.30693,1.73949 -3.35393,5.90372 -5.53573,6.55717 -2.04445,0.61247 -5.62389,-3.35136 -7.0861,-4.54963 -1.90555,-1.56215 -4.33284,-3.00336 -5.69204,-5.10265 -1.50323,-2.32223 -0.63809,-5.25589 -2.04189,-7.66012 -2.88548,-4.94376 -13.15894,-9.48315 -17.72344,-4.5645 -6.88519,7.41923 -5.90936,23.37961 3.93153,27.81343 5.2108,2.34733 9.16643,0.35107 14.35056,0.23884 3.16276,-0.0686 6.62996,1.5273 9.73788,2.13053 z"
       id="path4-5" /><path
       style="fill:#fefefe;stroke:none;stroke-width:0.51252"
       d="m 223.24449,165.22545 c 11.01815,-2.05315 21.59092,-3.07512 32.80128,-3.07512 0,-3.00594 1.92501,-10.05513 -0.0144,-12.50395 -1.34742,-1.70106 -6.24557,-0.82157 -8.18597,-0.82157 -6.88929,0 -13.34448,0.40233 -19.98828,2.3453 -1.82918,0.53455 -5.45884,0.92253 -6.64789,2.55593 -1.96296,2.69534 1.23876,8.74768 2.03522,11.49941 m 42.53914,-14.86308 c -5.1e-4,2.91316 -1.883,9.53184 0.0144,11.92224 0.86308,1.08756 2.83424,1.14497 4.08581,1.40482 3.4554,0.71752 10.94383,4.99502 14.18193,3.76702 2.14336,-0.81235 6.61971,-8.59035 4.96221,-10.61121 -2.54517,-3.10485 -9.83832,-4.03251 -13.50643,-5.12162 -3.17608,-0.94354 -6.4275,-1.35202 -9.73787,-1.36125 z"
       id="path5-6" /><path
       style="fill:#3d4859;stroke:none;stroke-width:0.51252"
       d="m 161.74416,156.8929 c -7.62578,2.95416 -2.24483,14.93585 5.63567,11.84433 8.51449,-3.34061 2.28636,-14.91279 -5.63567,-11.84433 z"
       id="path6" /><path
       style="fill:#fefefe;stroke:none;stroke-width:0.51252"
       d="m 208.87189,157.85336 c -3.62556,0.12711 -12.10161,4.7936 -13.7796,8.03835 -1.12088,2.16746 2.17975,8.53552 4.6301,8.74001 2.43447,0.20348 12.62952,-4.05915 13.38753,-6.44083 0.77185,-2.42371 -1.14241,-10.44618 -4.23803,-10.33753 m 89.71302,4.29697 c -1.17316,2.81834 -3.98126,6.50234 -3.37854,9.71583 0.38593,2.05624 2.82399,3.09153 4.40357,4.12221 4.66035,3.04128 10.43337,8.6826 15.88812,9.73788 1.77998,-2.60362 5.67359,-5.79354 5.50651,-9.22537 -0.1312,-2.69892 -2.99875,-4.45174 -4.99399,-5.80633 -5.15339,-3.49898 -11.13859,-7.6017 -17.42567,-8.54422 m -113.77992,10.17352 c -2.25611,0.40335 -4.45944,2.64255 -6.14972,4.05146 -5.02885,4.19037 -13.27529,10.28577 -15.77588,16.5262 -1.41763,3.53844 4.114,8.67185 7.57556,8.01479 2.50468,-0.47562 4.1386,-3.18685 5.72485,-4.93966 4.00585,-4.42663 12.18567,-9.11773 14.74109,-14.39617 1.40789,-2.90804 -2.743,-9.85935 -6.1159,-9.25662 m 56.89021,-0.21834 c -15.30487,2.01062 -29.82404,6.55103 -42.53914,15.62468 -21.63193,15.43659 -37.53952,40.8955 -39.4179,67.69875 -3.73319,53.26003 45.50664,102.13802 99.38272,95.69462 41.674,-4.98374 77.58167,-34.60278 82.88163,-77.75643 6.58947,-53.65416 -45.74547,-108.42869 -100.30731,-101.26162 m 86.19251,13.6356 c -10.36315,5.74432 2.71379,16.45239 6.56025,22.02349 2.15823,3.12534 4.16679,8.11985 8.72617,5.86425 11.19805,-5.53983 -0.53354,-16.98697 -5.86272,-23.28993 -2.03624,-2.40833 -5.82785,-6.59151 -9.4237,-4.59781 m -171.78126,20.35574 c -4.30825,1.60675 -10.28218,11.94531 -10.13047,16.53082 0.0912,2.74915 4.27441,8.12908 7.42488,6.85598 1.67798,-0.67755 2.16539,-3.29858 2.72916,-4.8059 1.64313,-4.39077 5.98828,-10.19402 6.04055,-14.86103 0.0344,-3.02181 -3.40364,-4.7121 -6.06412,-3.71987 z"
       id="path7-2" /><path
       style="fill:#3d4859;stroke:none;stroke-width:0.51252"
       d="m 373.41331,210.70031 c -9.74454,3.49999 -3.6845,17.29908 5.63669,14.12965 9.65229,-3.28166 3.64504,-17.46411 -5.63669,-14.12965 z"
       id="path8" /><path
       style="fill:#fefefe;stroke:none;stroke-width:0.51252"
       d="m 353.42401,218.977 c -11.12219,3.00848 -7.54891,9.88342 -4.94838,18.00122 0.95328,2.97518 1.64417,10.76805 5.97649,9.76504 11.35437,-2.62871 8.20955,-10.08075 5.485,-18.47787 -0.88718,-2.73482 -2.45242,-10.38724 -6.51311,-9.28839 z"
       id="path9" /><path
       style="fill:#3d4859;stroke:none;stroke-width:0.51252"
       d="m 187.3681,229.80295 v 59.96482 h 12.813 v -34.33883 l 13.71964,23.57591 6.37781,10.23604 11.16626,0.52688 v -59.96482 h -12.30048 l 0.51253,36.38891 -13.19841,-25.626 -5.81864,-10.23604 -13.27171,-0.52687 m 51.25199,0 v 59.96482 h 14.86306 V 264.6543 h 20.5008 v -11.27544 h -20.5008 v -12.30048 h 21.01332 v -11.27543 h -35.87638 m 40.48906,0 v 11.78795 h 13.32552 v 48.17687 h 14.35055 v -48.68939 h 15.3756 v -11.27543 z"
       id="path10" /><path
       style="fill:#fefefe;stroke:none;stroke-width:0.51252"
       d="m 352.912,257.47901 v 10.2504 6.66277 c 0,1.46836 -0.46742,4.0284 0.52688,5.25742 1.48169,1.83124 6.52284,1.11063 7.92304,-0.52635 1.54986,-1.81228 1.28437,-5.57007 1.28796,-7.8062 0.0129,-7.89691 -0.43307,-13.07694 -9.73788,-13.83804 m -3.74754,35.37823 c -2.95057,2.1331 -7.24908,12.89038 -6.23736,16.38577 1.00863,3.48667 8.22491,8.80918 11.92581,6.64839 4.30312,-2.51185 8.0189,-14.33005 6.41163,-18.94067 -1.23364,-3.53895 -8.83328,-6.45621 -12.10008,-4.09349 m -197.16023,22.53652 c 1.18034,-2.87832 1.93375,-5.81967 3.00594,-8.71284 1.27155,-3.43184 1.88812,-9.17616 -1.28284,-11.99143 -3.02951,-2.68919 -9.36579,0.64987 -9.75991,4.30414 -0.3516,3.26066 2.20998,7.31776 3.43028,10.24989 1.01839,2.44728 1.91632,5.30919 4.60653,6.15024 m 184.51483,4.13654 c -4.09658,1.8584 -7.91792,8.86352 -10.83723,12.26409 -1.10346,1.2854 -2.82809,2.81373 -3.1561,4.55885 -0.37055,1.97322 9.12747,8.77845 10.91052,8.16394 4.51479,-1.556 9.02906,-9.44164 11.61165,-13.23531 0.94201,-1.3838 2.75479,-3.31908 2.82706,-5.07189 0.11379,-2.76762 -8.90759,-7.79031 -11.3559,-6.67968 m -174.26443,2.7999 c -8.90759,2.10748 -2.94596,13.98718 3.07461,12.13083 8.32896,-2.56824 5.70178,-14.20705 -3.07461,-12.13083 m 144.53059,40.21538 c -0.49561,-3.3524 -2.70815,-9.93725 -6.66481,-10.51076 -3.2094,-0.46588 -6.92978,2.12337 -9.73582,3.33547 -2.09877,0.90666 -5.86016,1.8584 -7.16041,3.8603 -1.39612,2.149 0.47356,11.18062 3.17711,11.84434 2.84191,0.69805 8.06501,-1.41455 10.64606,-2.57336 3.47283,-1.55909 6.18303,-4.42407 9.73787,-5.95599 m -110.70428,1.02503 c 3.62095,2.11364 13.01237,7.86769 17.33137,6.33116 1.83994,-0.65448 3.02182,-3.25962 4.01764,-4.7936 0.94817,-1.46017 3.03463,-4.06274 2.37656,-5.9483 -0.74315,-2.13055 -5.44706,-2.82193 -7.32494,-3.44772 -2.45548,-0.8185 -6.10564,-2.97928 -8.71078,-2.64665 -3.65991,0.46741 -6.77398,7.39208 -7.68985,10.50511 m 46.12678,13.32552 27.67608,-1.02504 c -0.0236,-2.85627 0.043,-11.4456 -2.3576,-13.31116 -1.27156,-0.98865 -3.82595,-0.52688 -5.3302,-0.52688 -4.86638,0 -10.04027,0.0969 -14.86308,0.72984 -1.50322,0.19783 -4.59269,-0.18503 -5.62337,1.11678 -2.13771,2.69944 -0.0754,9.97158 0.49817,13.01646 m -116.34199,77.39049 0.51252,0.51253 -0.51252,-0.51253 m 50.22693,0 0.51253,0.51253 -0.51253,-0.51253 m 63.55246,0 0.51252,0.51253 -0.51252,-0.51253 m 82.00318,0 0.51252,0.51253 -0.51252,-0.51253 m 21.35517,0.17067 0.34133,0.17118 -0.34133,-0.17118 m 15.03373,-0.17067 0.51252,0.51253 -0.51252,-0.51253 m 12.64233,0.17067 0.34134,0.17118 -0.34134,-0.17118 m 5.80839,-0.17067 0.51252,0.51253 -0.51252,-0.51253 m 16.91315,0 0.51252,0.51253 z"
       id="path11" /></g><rect
     style="opacity:1;fill:#3d4859;fill-opacity:1;stroke-width:1.84084"
     id="rect2"
     width="8.9296589"
     height="446.18588"
     x="3.442503"
     y="29.820089" /></svg>
